<?xml version="1.0" encoding="utf-8"?>
<!-- Generator: Adobe Illustrator 19.2.0, SVG Export Plug-In . SVG Version: 6.00 Build 0)  -->
<svg version="1.1"
	 id="svg4429" inkscape:version="0.48.1 " sodipodi:docname="Stanford school of medicine.svg" xmlns:cc="http://creativecommons.org/ns#" xmlns:dc="http://purl.org/dc/elements/1.1/" xmlns:inkscape="http://www.inkscape.org/namespaces/inkscape" xmlns:rdf="http://www.w3.org/1999/02/22-rdf-syntax-ns#" xmlns:sodipodi="http://sodipodi.sourceforge.net/DTD/sodipodi-0.dtd" xmlns:svg="http://www.w3.org/2000/svg"
	 xmlns="http://www.w3.org/2000/svg" xmlns:xlink="http://www.w3.org/1999/xlink" x="0px" y="0px" viewBox="0 0 603.7 184.8"
	 style="enable-background:new 0 0 603.7 184.8" xml:space="preserve">
<style type="text/css">
	.st0{fill:#231F20;}
	.st1{fill:#FFFFFF;}
	.st2{fill:#EF2F51;}
	.st3{fill:#FDDD04;}
	.st4{fill:none;stroke:#231F20;stroke-width:8.600000e-02;}
	.st5{fill:none;stroke:#231F20;stroke-width:2.900000e-02;}
</style>
<g>
	<g>
		<g id="layer1" transform="translate(-149.54777,-263.47729)" inkscape:groupmode="layer" inkscape:label="Layer 1">
			<g id="g4832" transform="matrix(3.2476634,0,0,-3.2476634,-58.354654,2166.3138)">
				<g id="g4834">
					<g id="g4840">
						<g id="g4842">
							<g id="g4848" transform="translate(71.646896,585.29919)">
								<path id="path4850" inkscape:connector-curvature="0" class="st0" d="M0,0h17.7l0.8,0h1.8c0.9,0,2.3,0,4.3,0.1l0.7,0
									c-0.1-1.5-0.1-2.2-0.1-3l0-2.4l0-2.2v-0.6V-20c0-7.9-1.8-10.6-10.3-14.8c-0.4-0.2-4.7-2.4-5.2-2.6l-0.4-0.2l-0.4-0.2
									l-0.4,0.2l-0.4,0.2c-1.8,0.9-3.6,1.8-5,2.5C-5-31.1-7.5-28.4-7.5-20v11.9v0.6l0,2.2l0,2.4c0,1.4,0,1.9-0.1,3l0.7,0
									C-4.9,0.1-3.5,0-2.6,0h1.8L0,0"/>
							</g>
							<g id="g4852" transform="translate(80.406998,548.1884)">
								<path id="path4854" inkscape:connector-curvature="0" class="st1" d="M0,0l3.4,1.7l0.1,0l0,0.1v15.5l0,0.1l0.1,0h12.2l0.1,0
									l0,0.1V24l0,0.1l-0.1,0H3.5l-0.1,0l0,0.1v12.3l0,0.1l-0.1,0h-6.7l-0.1,0l0-0.1V24.1l0-0.1l-0.1,0h-12.1l-0.1,0l0-0.1v-6.6
									l0-0.1l0.1,0h12.1l0.1,0l0-0.1V1.8l0-0.1l0.1,0L0,0"/>
							</g>
							<g id="g4856" transform="translate(64.927902,584.68491)">
								<path id="path4858" inkscape:connector-curvature="0" class="st2" d="M0,0l-0.2,0l0-0.1v-12.3l0-0.1l0.1,0h12l0.1,0l0,0.1
									v12.3l0,0.1L12,0H0"/>
							</g>
							<g id="g4860" transform="translate(83.959,584.68491)">
								<path id="path4862" inkscape:connector-curvature="0" class="st2" d="M0,0l-0.1,0l0-0.1v-12.3l0-0.1l0.1,0h12.1l0.1,0l0,0.1
									v12.3l0,0.1l-0.1,0H0"/>
							</g>
							<g id="g4864" transform="translate(76.992096,565.4848)">
								<path id="path4866" inkscape:connector-curvature="0" class="st2" d="M0,0h-12.1l-0.1,0l0-0.1v-0.7c0-6.8,2.3-10.1,9.2-13.4
									l2.2-1.1L0-15.6L0-15.7l0,0.1L0,0L0,0L0,0"/>
							</g>
							<g id="g4868" transform="translate(83.895904,565.4848)">
								<path id="path4870" inkscape:connector-curvature="0" class="st2" d="M0,0L0,0L0,0l-0.1-15.5l0-0.1L0-15.6l0.7,0.3
									c9.4,4.4,11.6,7.1,11.6,14.4v0.8l0,0.1l-0.1,0L0,0"/>
							</g>
							<g id="g4872" transform="translate(66.777405,571.6124)">
								<path id="path4874" inkscape:connector-curvature="0" class="st0" d="M0,0C0,0,0.1-0.1,0,0c0.1-0.1,0.1-0.2,0.2-0.2
									c0,0,0,0,0.1-0.1c0,0,0,0,0.1-0.1c0,0,0,0-0.1,0L0.2-0.5L0.1-0.6l0,0v-0.1c0-0.9,0.2-1.4,0.7-1.8l0.1-0.1L0.8-2.7l-0.1,0
									l-0.2,0l-0.2,0l-0.1,0L0.1-3.3h-0.1l-0.1,0.8l-0.1,0c-0.1,0-0.1,0-0.2,0l-0.2,0l-0.1,0c0,0-0.1,0-0.1,0c0,0,0,0,0,0.1
									l0.2,0.1c0.1,0.1,0.2,0.2,0.4,0.5c0.1,0.1,0.1,0.3,0.1,0.3c0,0.2,0,0.4,0.1,0.4l0,0.4l0,0.1l0,0l-0.1,0.1l-0.1,0.1l0,0
									c0,0,0.1,0.1,0.1,0.1C-0.1-0.1-0.1-0.1,0,0"/>
							</g>
							<g id="g4876" transform="translate(70.759995,571.6124)">
								<path id="path4878" inkscape:connector-curvature="0" class="st0" d="M0,0c0.1-0.1,0.1-0.1,0.2-0.3c0,0,0,0,0.1-0.1l0,0
									L0.2-0.5L0.1-0.6L0-0.6l0-0.1l0-0.4c0-0.6,0.3-1.2,0.7-1.4c0.1,0,0.1-0.1,0.1-0.1c0,0,0-0.1,0-0.1l-0.1,0l-0.2,0l-0.2,0
									l-0.1,0L0.1-3.3h-0.1l-0.1,0.8l-0.1,0l-0.2,0l-0.2,0l-0.1,0l0,0c0,0-0.1,0-0.1,0c0,0,0,0,0,0.1l0.2,0.1
									c0.1,0.1,0.2,0.2,0.4,0.5c0.1,0.1,0.1,0.3,0.1,0.3c0,0.2,0,0.4,0.1,0.4l0,0.4l0,0.1c0,0,0,0,0,0c-0.1,0.1-0.1,0.1-0.1,0.1
									l-0.1,0.1l0,0c0,0,0.1,0.1,0.1,0.1c0.1,0,0.1,0.1,0.1,0.1C-0.1-0.2-0.1-0.1,0,0C-0.1-0.1,0,0,0,0"/>
							</g>
							<g id="g4880" transform="translate(68.7742,569.2795)">
								<path id="path4882" inkscape:connector-curvature="0" class="st0" d="M0,0L0,0l0.1-0.2c0,0,0-0.1,0.1-0.1l0.1-0.1l-0.1,0
									L0.2-0.5L0.1-0.6l0,0v-0.1c0-0.9,0.2-1.4,0.7-1.8l0.1-0.1L0.8-2.7l-0.1,0l-0.2,0l-0.2,0l-0.1,0L0.1-3.3h-0.1l-0.1,0.8
									l-0.1,0l-0.2,0l-0.2,0l-0.1,0h0c0,0-0.1,0-0.1,0c0,0,0,0,0.1,0.1l0.2,0.1c0.3,0.3,0.6,1,0.6,1.7v0.1l0,0l-0.1,0.1l-0.1,0.1
									l-0.1,0C-0.2-0.2-0.1-0.1,0,0"/>
							</g>
							<g id="g4884" transform="translate(72.767593,569.2795)">
								<path id="path4886" inkscape:connector-curvature="0" class="st0" d="M0,0c0.1-0.1,0.2-0.2,0.3-0.4l-0.1,0L0.2-0.5L0.1-0.6
									l0,0l0-0.1c0-0.6,0.2-1.3,0.4-1.5l0.2-0.2c0,0,0.1-0.1,0.1-0.1l0.1-0.1L0.8-2.7l-0.1,0l-0.2,0l-0.2,0l-0.1,0L0.1-3.3h-0.1
									l-0.1,0.8l-0.1,0l-0.2,0l-0.2,0l-0.1,0h0c0,0-0.1,0-0.1,0c0,0,0,0,0,0.1l0.2,0.1c0.3,0.3,0.6,1,0.6,1.7v0.1l0,0l-0.1,0.1
									l-0.1,0.1l-0.1,0c0,0,0.1,0.1,0.1,0.1c0,0,0.1,0.1,0.1,0.1L0,0L0,0"/>
							</g>
							<g id="g4888" transform="translate(74.764099,571.6124)">
								<path id="path4890" inkscape:connector-curvature="0" class="st0" d="M0,0c0.1-0.1,0.1-0.1,0.2-0.3c0,0,0,0,0.1-0.1l0,0
									L0.2-0.5L0.1-0.6l0,0l0-0.1l0-0.4c0-0.5,0.3-1.2,0.7-1.4c0.1,0,0.1-0.1,0.1-0.1c0,0,0-0.1,0-0.1l-0.1,0l-0.2,0
									c0,0-0.1,0-0.2,0l-0.1,0L0.1-3.3h-0.1l-0.1,0.8l-0.1,0l-0.2,0l-0.2,0l-0.1,0l0,0c0,0-0.1,0-0.1,0c0,0,0,0,0,0.1l0.2,0.1
									c0.1,0.1,0.2,0.2,0.4,0.5c0.1,0.1,0.1,0.3,0.1,0.3c0,0.2,0,0.4,0.1,0.4l0,0.4l0,0.1l0,0l-0.1,0.1c0,0-0.1,0.1-0.1,0.1
									c0,0,0,0-0.1,0c0,0,0.1,0.1,0.1,0.1c0.1,0,0.1,0.1,0.1,0.1C-0.1-0.2-0.1-0.1,0,0C-0.1-0.1,0,0,0,0"/>
							</g>
							<g id="g4892" transform="translate(86.102997,571.63341)">
								<path id="path4894" inkscape:connector-curvature="0" class="st0" d="M0,0L0,0l0.1-0.2c0-0.1,0.1-0.1,0.1-0.1
									c0,0,0.1,0,0.1-0.1l-0.1,0L0.2-0.5L0.1-0.6l0,0v-0.1c0-0.8,0.3-1.6,0.7-1.8c0.1,0,0.1-0.1,0.1-0.1l0,0l-0.1,0H0.7
									c-0.1,0-0.3,0-0.5,0.1L0.1-3.3h-0.1l-0.1,0.8c-0.1,0-0.4-0.1-0.5-0.1h-0.1c-0.1,0-0.1,0-0.1,0c0,0,0,0.1,0.1,0.1
									c0.4,0.2,0.7,1,0.7,1.8v0.1l0,0l-0.1,0.1l-0.1,0.1l-0.1,0c0,0,0.1,0.1,0.1,0.1c0,0,0,0,0.1,0.1L0,0L0,0"/>
							</g>
							<g id="g4896" transform="translate(90.106796,571.63341)">
								<path id="path4898" inkscape:connector-curvature="0" class="st0" d="M0,0L0,0l0.2-0.2l0.1-0.1l0.1-0.1l-0.1,0L0.2-0.5
									L0.1-0.6l0,0l0-0.1c0-0.8,0.3-1.6,0.7-1.8c0.1,0,0.1-0.1,0.1-0.1l0,0l-0.1,0H0.7c-0.1,0-0.3,0-0.5,0.1L0.1-3.3h-0.1
									l-0.1,0.8c-0.2-0.1-0.4-0.1-0.5-0.1c-0.1,0-0.1,0-0.1,0c0,0,0,0.1,0.1,0.1c0.1,0,0.2,0.2,0.3,0.3c0.2,0.3,0.3,0.5,0.3,0.6
									c0,0.2,0,0.4,0.1,0.4l0,0.4l0,0.1c0,0,0,0,0,0c-0.1,0.1-0.1,0.1-0.2,0.2l0.1,0.1l0.1,0.1L0,0L0,0"/>
							</g>
							<g id="g4900" transform="translate(88.110001,569.30051)">
								<path id="path4902" inkscape:connector-curvature="0" class="st0" d="M0,0C0,0,0.1-0.1,0,0c0.1-0.1,0.1-0.2,0.2-0.2
									c0,0,0-0.1,0.1-0.1c0,0,0.1,0,0.1-0.1l-0.1,0L0.2-0.5L0.1-0.6l0,0l0-0.1l0-0.4c0-0.6,0.3-1.2,0.7-1.4c0.1,0,0.1-0.1,0.1-0.1
									l0,0l-0.1,0H0.7c-0.1,0-0.3,0-0.5,0.1L0.1-3.3h-0.1l-0.1,0.8c-0.1-0.1-0.4-0.1-0.5-0.1c-0.1,0-0.1,0-0.1,0c0,0,0,0,0.1,0.1
									c0.1,0,0.2,0.2,0.3,0.3c0.2,0.3,0.3,0.5,0.3,0.6c0,0.2,0,0.4,0.1,0.4l0,0.4l0,0.1l0,0l-0.1,0.1l-0.1,0.1l0,0
									c0,0,0.1,0.1,0.1,0.1C-0.1-0.1-0.1-0.1,0,0"/>
							</g>
							<g id="g4904" transform="translate(92.145294,569.30051)">
								<path id="path4906" inkscape:connector-curvature="0" class="st0" d="M0,0C0,0,0.1-0.1,0,0c0.1-0.1,0.1-0.2,0.2-0.2
									c0,0,0,0,0.1-0.1c0,0,0,0,0.1-0.1c0,0,0,0,0,0C0.2-0.5,0.2-0.5,0.2-0.5C0.1-0.6,0.1-0.6,0.1-0.6c0,0,0,0,0,0l0-0.1l0-0.4
									c0-0.6,0.3-1.2,0.7-1.4c0.1,0,0.1-0.1,0.1-0.1l0,0l-0.1,0H0.7c-0.1,0-0.3,0-0.5,0.1L0.1-3.3h-0.1l-0.1,0.8
									c-0.1-0.1-0.4-0.1-0.5-0.1c-0.1,0-0.1,0-0.1,0c0,0,0,0,0.1,0.1c0.1,0,0.2,0.2,0.3,0.3c0.2,0.3,0.3,0.5,0.3,0.6
									c0,0.2,0,0.4,0.1,0.4l0,0.4l0,0.1l0,0l-0.1,0.1l-0.1,0.1l0,0c0,0,0.1,0.1,0.1,0.1C-0.1-0.1-0.1-0.1,0,0"/>
							</g>
							<g id="g4908" transform="translate(94.142105,571.63341)">
								<path id="path4910" inkscape:connector-curvature="0" class="st0" d="M0,0L0,0l0.2-0.2l0.1-0.1l0.1-0.1l-0.1,0L0.2-0.5
									L0.1-0.6l0,0v-0.1c0-0.8,0.3-1.6,0.7-1.8c0.1,0,0.1-0.1,0.1-0.1l0,0l-0.1,0H0.7c-0.1,0-0.3,0-0.5,0.1L0.1-3.3h-0.1l-0.1,0.8
									c-0.2-0.1-0.4-0.1-0.5-0.1c-0.1,0-0.1,0-0.1,0c0,0,0,0.1,0.1,0.1c0.1,0,0.2,0.2,0.3,0.3c0.2,0.3,0.3,0.5,0.3,0.6
									c0,0.2,0,0.4,0.1,0.4l0,0.4l0,0.1c0,0,0,0,0,0c0,0-0.1,0.1-0.1,0.1l-0.1,0.1l0,0l0.1,0.1l0.1,0.1L0,0L0,0"/>
							</g>
							<g id="g4912" transform="translate(78.589203,560.7774)">
								<path id="path4914" inkscape:connector-curvature="0" class="st0" d="M0,0c0.1-0.1,0.1-0.1,0.2-0.3c0,0,0,0,0.1-0.1l0,0
									L0.2-0.5L0.1-0.6l0,0l0-0.1l0-0.4c0-0.3,0.2-0.8,0.3-1c0.1-0.2,0.2-0.3,0.3-0.3c0.1,0,0.1-0.1,0.1-0.1c0,0,0,0-0.1,0
									c-0.2,0-0.4,0-0.5,0.1L0.1-3.3h-0.1l-0.1,0.8c-0.1,0-0.4-0.1-0.5-0.1h-0.1c-0.1,0-0.1,0-0.1,0c0,0,0,0.1,0.1,0.1
									c0.1,0.1,0.2,0.2,0.3,0.3c0.2,0.3,0.3,0.5,0.3,0.6c0,0.2,0,0.4,0.1,0.4l0,0.4l0,0.1l0,0l-0.1,0.1l-0.1,0.1l-0.1,0
									c0,0,0.1,0.1,0.1,0.1c0.1,0,0.1,0.1,0.1,0.1C-0.1-0.2-0.1-0.1,0,0C-0.1-0.1,0,0,0,0"/>
							</g>
							<g id="g4916" transform="translate(82.340805,560.7774)">
								<path id="path4918" inkscape:connector-curvature="0" class="st0" d="M0,0c0.1-0.1,0.1-0.1,0.2-0.3c0,0,0,0,0.1-0.1l0,0
									L0.2-0.5L0.1-0.6l0,0l0-0.1l0-0.4c0-0.3,0.2-0.8,0.3-1c0.1-0.2,0.2-0.3,0.3-0.3c0.1,0,0.1-0.1,0.1-0.1c0,0,0,0-0.1,0
									c-0.2,0-0.4,0-0.5,0.1L0.1-3.3h-0.1l-0.1,0.8c-0.1,0-0.4-0.1-0.5-0.1h-0.1c-0.1,0-0.1,0-0.1,0c0,0,0,0.1,0.1,0.1
									c0.1,0.1,0.2,0.2,0.3,0.3c0.2,0.3,0.3,0.5,0.3,0.6c0,0.2,0,0.4,0.1,0.4l0,0.4l0,0.1l0,0l-0.1,0.1l-0.1,0.1l-0.1,0
									c0,0,0.1,0.1,0.1,0.1c0.1,0,0.1,0.1,0.1,0.1C-0.1-0.2-0.1-0.1,0,0C-0.1-0.1,0,0,0,0"/>
							</g>
							<g id="g4920" transform="translate(80.428299,557.37331)">
								<path id="path4922" inkscape:connector-curvature="0" class="st0" d="M0,0l0-0.1l0.1-0.1l0.1-0.1l0.1-0.1l0,0L0.2-0.5
									c0,0,0,0-0.1-0.1c0,0,0,0,0,0l0-0.1l0-0.4c0-0.6,0.4-1.2,0.7-1.4c0.1,0,0.1-0.1,0.1-0.1l0,0l-0.1,0l-0.1,0l-0.2,0
									c0,0-0.1,0-0.2,0l-0.1,0L0.1-3.3h-0.1l-0.1,0.8l-0.1,0l-0.2,0l-0.2,0l-0.1,0l0,0c0,0-0.1,0-0.1,0c0,0,0,0.1,0.1,0.1
									c0.1,0.1,0.2,0.2,0.3,0.3c0.2,0.3,0.3,0.5,0.3,0.6c0,0.2,0,0.4,0.1,0.4l0,0.4l0,0.1l0,0l-0.1,0.1l-0.1,0.1l-0.1,0l0.1,0.1
									l0.1,0.1L0,0L0,0"/>
							</g>
							<g id="g4924" transform="translate(78.568207,553.90511)">
								<path id="path4926" inkscape:connector-curvature="0" class="st0" d="M0,0L0,0l0.2-0.2l0.1-0.1l0.1-0.1l0,0L0.2-0.5L0.1-0.6
									l0,0l0-0.1l0-0.4c0-0.6,0.3-1.2,0.7-1.4c0.1,0,0.1-0.1,0.1-0.1l0,0l-0.1,0H0.7c-0.1,0-0.2,0-0.5,0.1L0.1-3.3h-0.1l-0.1,0.7
									c-0.2-0.1-0.4-0.1-0.5-0.1c-0.1,0-0.1,0-0.1,0c0,0,0,0,0.1,0.1c0.1,0,0.2,0.2,0.3,0.3c0.2,0.3,0.3,0.5,0.3,0.6
									c0,0.2,0,0.4,0.1,0.4l0,0.4l0,0.1c0,0,0,0,0,0c0,0-0.1,0.1-0.1,0.1l-0.1,0.1l0,0l0.1,0.1l0.1,0.1L0,0L0,0"/>
							</g>
							<g id="g4928" transform="translate(82.340805,553.90511)">
								<path id="path4930" inkscape:connector-curvature="0" class="st0" d="M0,0L0,0l0.1-0.2l0.1-0.1l0.1-0.1l0,0L0.2-0.5
									c0,0,0,0-0.1-0.1c0,0,0,0,0,0l0-0.1l0-0.4c0-0.3,0.2-0.8,0.3-1c0.1-0.2,0.2-0.3,0.3-0.3c0.1,0,0.1-0.1,0.1-0.1
									c0,0,0,0-0.1,0c-0.1,0-0.3,0-0.5,0.1L0.1-3.3h-0.1l-0.1,0.7c-0.2,0-0.4-0.1-0.5-0.1h-0.1c-0.1,0-0.1,0-0.1,0
									c0,0,0,0.1,0.1,0.1c0.1,0.1,0.2,0.2,0.3,0.3c0.2,0.3,0.3,0.5,0.3,0.6c0,0.2,0,0.4,0.1,0.4l0,0.4l0,0.1l0,0l-0.1,0.1
									l-0.1,0.1l-0.1,0l0.1,0.1l0.1,0.1L0,0L0,0"/>
							</g>
							<g id="g4932" transform="translate(80.428299,564.2037)">
								<path id="path4934" inkscape:connector-curvature="0" class="st0" d="M0,0L0,0l0.1-0.2l0.1-0.1l0.1-0.1l0,0L0.2-0.5
									c0,0,0,0-0.1-0.1c0,0,0,0,0,0l0-0.1l0-0.4c0-0.6,0.4-1.2,0.7-1.4c0.1,0,0.1-0.1,0.1-0.1c0,0,0,0-0.1,0c-0.1,0-0.3,0-0.5,0.1
									L0.1-3.3h-0.1l-0.1,0.8c-0.2,0-0.4-0.1-0.5-0.1h-0.1c-0.1,0-0.1,0-0.1,0c0,0,0,0.1,0.1,0.1c0.1,0.1,0.2,0.2,0.3,0.3
									c0.2,0.3,0.3,0.5,0.3,0.6c0,0.2,0,0.4,0.1,0.4l0,0.4l0,0.1l0,0l-0.1,0.1l-0.1,0.1l-0.1,0l0.1,0.1l0.1,0.1L0,0L0,0"/>
							</g>
							<g id="g4936" transform="translate(78.536697,583.3817)">
								<path id="path4938" inkscape:connector-curvature="0" class="st0" d="M0,0C0,0,0.1-0.1,0,0c0.1-0.1,0.1-0.2,0.2-0.2
									c0,0,0,0,0.1-0.1c0,0,0,0,0.1-0.1l0,0L0.2-0.5c0,0,0,0-0.1-0.1c0,0,0,0,0,0l0-0.1l0-0.4c0-0.4,0.2-0.9,0.3-1.1l0.2-0.2
									c0,0,0,0,0.1-0.1l0.1-0.1L0.8-2.7l-0.1,0l-0.2,0l-0.2,0l-0.1,0L0.1-3.3l-0.1,0l-0.1,0.8l-0.1,0l-0.2,0l-0.2,0l-0.1,0
									c0,0-0.1,0-0.1,0c0,0,0,0,0,0.1c0,0,0.1,0,0.2,0.1c0.1,0.1,0.2,0.2,0.4,0.5c0.1,0.1,0.1,0.3,0.1,0.3c0,0.2,0,0.4,0.1,0.4
									l0,0.4l0,0.1l0,0l-0.1,0.1l-0.1,0.1l0,0c0,0,0.1,0.1,0.1,0.1C-0.1-0.1-0.1-0.1,0,0"/>
							</g>
							<g id="g4940" transform="translate(82.340805,583.3817)">
								<path id="path4942" inkscape:connector-curvature="0" class="st0" d="M0,0c0.1-0.1,0.1-0.1,0.2-0.3c0,0,0,0,0.1-0.1l0,0
									L0.2-0.5L0.1-0.6l0,0l0-0.1l0-0.4c0-0.6,0.3-1.2,0.7-1.4c0.1,0,0.1-0.1,0.1-0.1c0,0,0-0.1,0-0.1l-0.1,0l-0.2,0
									c0,0-0.1,0-0.2,0l-0.1,0L0.1-3.3h-0.1l-0.1,0.8l-0.1,0l-0.2-0.1l-0.2,0l-0.1,0l0,0c0,0-0.1,0-0.1,0s0,0,0,0.1l0.2,0.1
									c0.1,0.1,0.2,0.2,0.4,0.5c0.1,0.1,0.1,0.3,0.1,0.3c0,0.2,0,0.4,0.1,0.4l0,0.4l0,0.1l0,0l-0.1,0.1c0,0-0.1,0.1-0.1,0.1
									c0,0,0,0-0.1,0c0,0,0.1,0.1,0.1,0.1c0.1,0,0.1,0.1,0.1,0.1C-0.1-0.2-0.1-0.1,0,0C-0.1-0.1,0,0,0,0"/>
							</g>
							<g id="g4944" transform="translate(80.406998,580.093)">
								<path id="path4946" inkscape:connector-curvature="0" class="st0" d="M0,0L0,0l0.2-0.2c0.1-0.1,0.1-0.1,0.1-0.1
									c0,0,0,0,0.1-0.1l-0.1,0L0.2-0.5L0.1-0.6l0,0l0-0.1l0-0.4c0-0.6,0.3-1.2,0.7-1.4c0.1,0,0.1-0.1,0.1-0.1l0,0l-0.1,0H0.7
									c-0.1,0-0.3,0-0.5,0.1L0.1-3.3h-0.1l-0.1,0.8c-0.1-0.1-0.4-0.1-0.5-0.1c-0.1,0-0.1,0-0.1,0c0,0,0,0.1,0.1,0.1
									c0.1,0,0.2,0.2,0.3,0.3c0.2,0.3,0.3,0.5,0.3,0.6c0,0.2,0,0.4,0.1,0.4l0,0.4l0,0.1c0,0,0,0,0,0c0,0-0.1,0.1-0.1,0.1l-0.1,0.1
									l0,0l0.1,0.1l0.1,0.1C-0.1-0.1-0.1-0.1,0,0C0-0.1,0,0,0,0"/>
							</g>
							<g id="g4948" transform="translate(78.526306,576.81419)">
								<path id="path4950" inkscape:connector-curvature="0" class="st0" d="M0,0L0,0l0.1-0.2c0,0,0-0.1,0.1-0.1l0.1-0.1
									c0,0,0,0-0.1,0L0.2-0.5L0.1-0.6l0,0l0-0.1c0-0.6,0.2-1.2,0.3-1.4l0.2-0.3c0,0,0,0,0.1-0.1l0.1-0.1L0.8-2.7l-0.1,0l-0.2,0
									l-0.2,0l-0.1,0L0.1-3.3h-0.1l-0.1,0.8l-0.1,0l-0.2,0l-0.2,0l-0.1,0h0c0,0-0.1,0-0.1,0c0,0,0,0,0,0.1l0.2,0.1
									c0.4,0.3,0.6,1,0.6,1.7v0.1l0,0l-0.1,0.1c0,0-0.1,0.1-0.1,0.1c0,0,0,0-0.1,0c0,0,0.1,0.1,0.1,0.1c0,0,0.1,0.1,0.1,0.1L0,0
									L0,0"/>
							</g>
							<g id="g4952" transform="translate(82.319595,576.81419)">
								<path id="path4954" inkscape:connector-curvature="0" class="st0" d="M0,0C0,0,0.1-0.1,0,0c0.1-0.1,0.1-0.2,0.2-0.2
									c0,0,0,0,0.1-0.1c0,0,0,0,0.1-0.1c0,0,0,0-0.1,0L0.2-0.5L0.1-0.6l0,0l0-0.1l0-0.4c0-0.6,0.3-1,0.7-1.4l0.1-0.1L0.8-2.7
									l-0.1,0l-0.2,0l-0.2,0l-0.1,0L0.1-3.3h-0.1l-0.1,0.8c-0.2,0-0.2-0.1-0.3-0.1l-0.2,0l-0.1,0h0c0,0-0.1,0-0.1,0c0,0,0,0,0,0.1
									l0.2,0.1c0.1,0.1,0.2,0.2,0.4,0.5c0.1,0.1,0.1,0.3,0.1,0.3c0,0.2,0,0.4,0.1,0.4l0,0.4l0,0.1l0,0l-0.1,0.1l-0.1,0.1l0,0
									c0,0,0.1,0.1,0.1,0.1C-0.1-0.1-0.1-0.1,0,0"/>
							</g>
							<g id="g4956" transform="translate(74.448898,578.5063)">
								<path id="path4958" inkscape:connector-curvature="0" class="st0" d="M0,0l0-0.2c0-0.1,0.1-0.3,0.1-0.3
									c0.1-0.6,0.2-0.8,0.5-0.8C0.8-1.3,1-1.2,1-1l0.1,0.2c0,0,0.1,0.1,0.1,0.1c0.1,0,0.2-0.1,0.2-0.4c0-0.1,0-0.2,0.1-0.5
									c0-0.2,0-0.3,0-0.5c0-0.1,0-0.2-0.1-0.3c0-0.2,0.1-0.5,0.1-0.6c0-0.3,0-0.5-0.1-0.6c0-0.2,0.1-0.2,0.1-0.4
									c0-0.1,0-0.2,0-0.4c0-0.3-0.1-0.3-0.1-0.4c0,0,0-0.1,0-0.1c0-0.1,0-0.1,0-0.1c0,0,0-0.1,0-0.1L1.1-5L0.9-4.9
									c-0.1,0-0.1,0.1-0.2,0.2C0.4-4.9,0.4-4.9-0.2-5.1c-0.1,0-0.2-0.1-0.2-0.1c-0.1,0-0.1-0.1-0.1-0.1c-0.1,0-0.1,0.1-0.1,0.4
									c0,0.2,0,0.4,0.1,0.6C-0.8-4.2-0.9-4.1-1-4.1c0,0-0.1,0-0.2,0l0,0c0,0-0.1,0-0.1,0.1c0,0,0,0.1,0.1,0.2l0.1,0.3
									c0,0.1,0.1,0.2,0.3,0.3c0.1,0.1,0.2,0.1,0.3,0.2L-0.2-3c0.2,0,0.4,0.2,0.4,0.3c0,0.2-0.1,0.3-0.3,0.3l-0.5,0.2
									C-0.7-2.2-0.8-2.1-1-2c-0.3,0.1-0.3,0.2-0.4,0.2c-0.1,0-0.1-0.1-0.1-0.2c0-0.2,0.1-0.3,0.3-0.3c0,0,0.1,0,0.1,0
									c0,0,0.1,0,0.1,0c0,0,0.1,0,0.1-0.1l0,0l0-0.2c0-0.2-0.1-0.3-0.3-0.6l-0.1-0.1C-1.4-3.7-1.7-4-1.9-4.2C-2-4.2-2-4.3-2-4.3
									c0,0,0-0.1-0.1-0.1c0,0-0.1-0.1-0.2-0.3c-0.1-0.1-0.2-0.2-0.3-0.2C-2.7-5-2.8-5.1-2.8-5.1l-0.1-0.2c0,0-0.1-0.1-0.1-0.1
									c-0.1,0-0.2,0.1-0.2,0.3c0,0.1-0.1,0.2-0.2,0.2c0,0-0.1,0-0.2,0l-0.1,0h-0.4c-0.2,0-0.5,0-0.6-0.1c0,0-0.1,0-0.1,0
									c0,0,0,0-0.1,0.1c0,0,0,0.1,0,0.1c0,0.2,0.1,0.6,0.3,0.8c0.1,0.2,0.2,0.2,0.3,0.3c0,0.2-0.2,0.3-0.3,0.4l-0.2,0.1
									c0,0,0,0,0,0.1c0,0.1,0.1,0.1,0.2,0.2C-4.3-3-4.1-2.9-4-2.9c0.2,0,0.3-0.1,0.5-0.2c0.3-0.2,0.4-0.3,0.5-0.3
									c0.2,0,0.4,0.2,0.4,0.4c0,0.1-0.1,0.3-0.3,0.6c-0.3,0.4-0.4,0.6-0.4,0.9c0,0.2,0.1,0.4,0.1,0.5l0.1,0.2c0,0,0,0.1,0,0.1
									c0,0.1-0.1,0.1-0.2,0.1c-0.2,0-0.5-0.1-0.7-0.3C-3.9-1.1-4-1.2-4-1.2c0,0,0-0.1,0-0.1l0.1-0.1c0,0,0,0,0,0c0,0,0,0,0-0.1
									l-0.2-0.3c-0.1-0.1-0.3-0.3-0.4-0.5c-0.1,0-0.1-0.1-0.1-0.1c0,0,0-0.1-0.1-0.2C-4.8-2.6-5-2.8-5.2-3C-5.3-3-5.3-3.1-5.3-3.1
									c0,0,0-0.1-0.1-0.1c0-0.1-0.1-0.1-0.1-0.2c-0.1-0.2-0.2-0.3-0.3-0.3l-0.3-0.3c-0.1-0.1-0.2-0.3-0.3-0.7
									C-6.5-5-6.5-5.1-6.6-5.1c0,0,0,0-0.1,0.1C-6.9-4.8-7-4.7-7.1-4.7c0,0-0.1,0-0.1-0.1c-0.1,0-0.2-0.1-0.3-0.1l-0.4-0.1
									C-8.2-4.9-8.3-5-8.5-5.2c0,0-0.1-0.1-0.1-0.1c0,0-0.1,0.1-0.1,0.1l0,0.1l0.1,0.3c0.1,0.3,0.1,0.5,0.2,0.7l0.2,0.3
									c0,0.1,0.1,0.1,0.1,0.2c0,0.2-0.2,0.5-0.6,0.5c-0.1,0-0.1,0-0.1,0.1c0,0.1,0.1,0.2,0.2,0.2C-8.4-2.6-8.1-2.5-8-2.5
									c0.1,0,0.3,0,0.5-0.1l0.2-0.1c0.1,0,0.2-0.1,0.2-0.1c0.2,0,0.5,0.2,0.8,0.7c0.1,0.2,0.2,0.4,0.2,0.5c0,0.3-0.1,0.4-0.3,0.4
									c-0.2,0-0.3-0.1-0.5-0.2C-6.9-1.4-7-1.5-7-1.6l0-0.1l0,0c0-0.1,0-0.2-0.1-0.2c-0.1,0-0.2,0.1-0.7,0.6
									c-0.3,0.4-0.4,0.5-0.4,0.9c-0.4,0.5-0.4,0.6-0.4,1l0,0.2c-0.2,0.3-0.3,0.5-0.3,0.7c0,0.1,0,0.2,0.1,0.3C-8.9,2-9,2.1-9,2.2
									l-0.1,0.2c0,0.2-0.1,0.3-0.2,0.4C-9.3,3-9.3,3-9.3,3c0,0.1,0.1,0.2,0.5,0.3c0,0.1,0,0.2,0,0.2c0,0.1,0,0.1,0,0.3l0.1,0.4
									c0,0.2,0,0.3,0,0.3c0,0.1,0,0.1-0.1,0.3c0,0.1-0.1,0.2-0.1,0.2C-9,5.2-9,5.2-9,5.2c0,0,0,0.1,0.1,0.1c0.1,0,0.4-0.2,0.7-0.4
									c0.6-0.5,0.7-0.7,0.8-1.3c0,0,0-0.1,0-0.2C-7.1,3.2-7,2.9-7,2.6C-7,2.4-7,2.2-7.2,2l-0.2-0.3c-0.1-0.1-0.1-0.2-0.1-0.3
									c0-0.2,0.1-0.4,0.2-0.6C-7.1,0.4-7,0.3-6.8,0.3c0.3,0,0.5,0.5,0.5,1v0.1l0,0.2c0,0.1,0,0.2,0,0.3c0,0.2,0,0.3,0,0.3l0,0.3
									l0,0.2c0,0.1,0,0.1-0.1,0.2l-0.2,0.3c-0.3,0.4-0.5,0.7-0.5,1c0,0.3,0.2,0.6,0.5,0.6c0.1,0,0.1,0,0.2,0v0.1
									c0,0.5,0.1,0.8,0.2,0.8l0.1,0l0.2-0.2l0.2-0.1L-5.6,5c0,0.1,0,0.1,0.1,0.3c0,0,0.1,0.1,0.1,0.2c0.1,0.1,0.1,0.1,0.1,0.2
									c0,0,0,0.1,0.1,0.1c0,0.1,0.1,0.1,0.1,0.1c0,0,0.1,0,0.1-0.2c0-0.1,0-0.1,0.2-0.3c0.1-0.1,0.1-0.1,0.1-0.1
									c0,0,0-0.1,0.1-0.2c0,0,0,0,0-0.1c0.1,0.1,0.1,0.1,0.2,0.2l0.2,0.1C-4.1,5.4-4,5.4-4,5.4c0,0,0,0,0.1-0.1c0,0,0-0.1,0.1-0.2
									C-3.8,5-3.7,4.9-3.7,4.8l0-0.1V4.5c0.3-0.1,0.5-0.3,0.5-0.7c0-0.3-0.1-0.6-0.4-0.9c-0.2-0.2-0.2-0.3-0.2-0.4
									c0-0.8,0.5-1.2,1.5-1.2l0.7,0c0.5,0,0.7-0.1,1.1-0.2C0,1,0.1,0.9,0.3,0.9c0,0,0.1,0,0.1,0S0.5,1,0.5,1.1
									c0,0.1-0.3,0.3-1.1,0.5c-1.7,0.5-2.5,1.2-2.5,2.3c0,0.9,0.7,1.6,1.7,1.6c0.3,0,0.8-0.1,1.1-0.2l0.4-0.2c0.1,0,0.2,0,0.2,0
									c0.1,0,0.2,0.1,0.2,0.4c0,0.1,0,0.2,0.1,0.2c0.1,0,0.3-0.2,0.5-0.4C1.3,5,1.4,4.8,1.4,4.6C1.4,4.3,1.3,4.2,1,4
									C0.8,3.7,0.5,3.5,0.1,3.5c-0.3,0-0.7,0.2-1.4,0.6c-0.2,0.1-0.4,0.2-0.5,0.2C-2,4.3-2.1,4.2-2.1,4c0-0.2,0.1-0.2,0.4-0.4
									C-1.3,3.5-1.1,3.4-1,3.2C-0.4,3.1-0.2,3,0.1,2.8c0.9-0.3,1.5-0.9,1.5-1.6c0-0.7-0.5-1.2-1.1-1.2C0.3-0.1,0.2-0.1,0,0"/>
							</g>
							<g id="g4960" transform="translate(94.0578,578.5063)">
								<path id="path4962" inkscape:connector-curvature="0" class="st0" d="M0,0l0-0.2c0-0.1,0.1-0.3,0.1-0.3
									c0.1-0.6,0.2-0.8,0.5-0.8C0.8-1.3,1-1.2,1-1l0.1,0.2c0,0,0.1,0.1,0.1,0.1c0.1,0,0.2-0.1,0.2-0.4c0-0.1,0-0.3,0.1-0.5
									c0-0.2,0-0.3,0-0.5c0-0.1,0-0.2-0.1-0.3l0-0.1c0-0.2,0-0.3,0-0.4c0-0.5,0-0.6-0.1-0.8c0-0.2,0.1-0.3,0.1-0.4
									c0-0.1,0-0.2,0-0.4l0-0.3l0-0.2c0-0.1,0-0.1,0-0.1c0,0,0-0.1,0-0.1L1.1-5L0.9-4.9c-0.1,0-0.1,0.1-0.2,0.2
									C0.4-4.9,0.4-4.9,0.2-5c-0.3-0.1-0.5-0.1-0.5-0.2c-0.1,0-0.1-0.1-0.1-0.1c-0.1,0-0.1,0.2-0.1,0.4c0,0.3,0,0.5,0.1,0.6
									C-0.8-4.1-0.9-4.1-1-4.1c0,0,0,0-0.2,0l0,0c0,0,0,0,0,0.1c0,0.1,0.1,0.3,0.2,0.5c0.1,0.2,0.3,0.4,0.5,0.5L-0.2-3
									c0.2,0,0.4,0.2,0.4,0.3c0,0.2-0.1,0.3-0.3,0.3l-0.4,0.2C-0.7-2.2-0.9-2.1-1-2c-0.1,0.1-0.2,0.1-0.2,0.1c0,0-0.1,0-0.1,0
									c-0.1,0-0.1-0.1-0.1-0.2c0-0.2,0.1-0.3,0.3-0.3c0,0,0.1,0,0.1,0c0,0,0.1,0,0.1,0c0,0,0.1,0,0.1-0.1c0-0.2-0.1-0.5-0.2-0.7
									l-0.1-0.2l-0.1-0.1c0-0.3-0.3-0.7-0.6-0.8C-2-4.2-2-4.3-2-4.3c0,0,0-0.1-0.1-0.1c0,0-0.1-0.1-0.2-0.3
									c-0.1-0.1-0.2-0.2-0.3-0.2C-2.7-5-2.8-5.1-2.8-5.1l-0.1-0.2c0,0,0-0.1-0.1-0.1c-0.1,0-0.2,0.1-0.2,0.3
									c0,0.1-0.1,0.2-0.2,0.2c0,0-0.1,0-0.2,0l-0.1,0h-0.4c-0.2,0-0.5,0-0.6-0.1c0,0-0.1,0-0.1,0c-0.1,0-0.1,0.1-0.1,0.2
									c0,0.3,0.3,0.8,0.6,1.2c-0.1,0.2-0.2,0.3-0.3,0.4c-0.1,0-0.2,0-0.2,0.1c0,0,0,0,0,0.1c0,0.1,0.1,0.1,0.2,0.2
									C-4.2-3-4.1-2.9-4-2.9c0.2,0,0.4-0.1,0.6-0.2c0.3-0.2,0.4-0.3,0.5-0.3c0.2,0,0.4,0.2,0.4,0.4c0,0.1-0.1,0.3-0.3,0.6
									C-3-2.1-3.1-1.9-3.1-1.6c0,0.2,0,0.3,0.2,0.6c0,0,0,0.1,0,0.1c0,0.1-0.1,0.1-0.2,0.1c-0.1,0-0.3,0-0.4-0.1
									C-3.8-1-4-1.1-4-1.2c0,0,0-0.1,0.1-0.1l0.1-0.1c0,0,0,0,0,0s0-0.1,0-0.1c0,0-0.1-0.1-0.2-0.3C-4.2-2-4.4-2.1-4.5-2.2
									c-0.1,0-0.1-0.1-0.1-0.1l-0.1-0.2C-4.8-2.6-5-2.8-5.2-3C-5.3-3-5.3-3.1-5.3-3.1c0,0-0.1-0.1-0.1-0.1
									c-0.1-0.2-0.3-0.4-0.4-0.5l-0.3-0.3c-0.1-0.1-0.2-0.3-0.3-0.7C-6.5-5-6.5-5.1-6.6-5.1c0,0,0,0-0.1,0.1
									C-6.9-4.8-7-4.7-7.1-4.7c0,0-0.1,0-0.1-0.1c-0.1,0-0.2-0.1-0.3-0.1l-0.4-0.1C-8.2-4.9-8.4-5-8.5-5.2c0,0-0.1-0.1-0.1-0.1
									c0,0-0.1,0.1-0.1,0.1l0,0.1c0,0,0,0.1,0.1,0.3c0.1,0.3,0.1,0.5,0.2,0.7l0.2,0.3c0,0.1,0.1,0.1,0.1,0.2
									c0,0.2-0.2,0.4-0.6,0.5c-0.1,0-0.1,0-0.1,0.1c0,0,0.1,0.1,0.2,0.2C-8.4-2.6-8.1-2.5-8-2.5c0.1,0,0.3,0,0.5-0.1l0.2-0.1
									c0.1,0,0.2-0.1,0.2-0.1c0.2,0,0.5,0.2,0.8,0.7c0.1,0.2,0.2,0.4,0.2,0.5c0,0.3-0.1,0.4-0.3,0.4c-0.2,0-0.3-0.1-0.4-0.2
									C-6.9-1.4-7-1.5-7-1.6l0-0.1l0-0.1c0-0.1,0-0.1-0.1-0.1c-0.1,0-0.2,0.1-0.4,0.3c-0.1,0.1-0.2,0.2-0.3,0.3
									c-0.3,0.4-0.4,0.5-0.4,0.9c-0.4,0.5-0.4,0.7-0.4,1l0,0.2c-0.3,0.3-0.3,0.4-0.3,0.7c0,0.1,0,0.2,0.1,0.3C-8.9,2-9,2.1-9,2.2
									l-0.1,0.2c0,0.2-0.1,0.3-0.2,0.4C-9.3,3-9.3,3-9.3,3c0,0.1,0.1,0.2,0.4,0.2l0.1,0c0,0.1,0,0.2,0,0.2c0,0.1,0,0.1,0,0.3
									l0.1,0.4c0,0.2,0,0.3,0,0.3c0,0.1,0,0.2-0.1,0.3C-8.8,5-8.9,5-8.9,5.1C-9,5.2-9,5.2-9,5.2c0,0,0,0.1,0.1,0.1
									c0,0,0.1,0,0.1,0c0.4-0.2,0.7-0.5,1-0.8C-7.5,4.2-7.5,4-7.4,3.4C-7.1,3.1-7,2.9-7,2.6C-7,2.4-7,2.2-7.2,2
									c-0.1-0.2-0.2-0.3-0.2-0.3c-0.1-0.1-0.1-0.2-0.1-0.4c0-0.2,0.1-0.4,0.2-0.6C-7.1,0.4-7,0.3-6.8,0.3c0.3,0,0.5,0.5,0.5,1
									l0,0.1v0.3l0,0.3l0,0.3l0,0.3l0,0.1c0,0.1,0,0.1-0.3,0.5c-0.4,0.4-0.5,0.7-0.5,1c0,0.3,0.2,0.5,0.5,0.5c0.1,0,0.1,0,0.2,0
									v0.1l0,0.2l0.1,0.3c0.1,0.2,0.1,0.3,0.1,0.3l0.1,0l0.2-0.2l0.2-0.1L-5.6,5c0,0.1,0,0.2,0.1,0.3c0.1,0.1,0.1,0.1,0.1,0.2
									l0.1,0.2l0.1,0.1c0,0.1,0.1,0.1,0.1,0.1c0,0,0,0,0.1-0.2c0,0,0-0.1,0.1-0.1l0.1-0.1C-4.6,5.4-4.5,5.2-4.5,5
									c0.1,0.1,0.1,0.1,0.2,0.2l0.2,0.1C-4,5.4-4,5.4-4,5.4c0,0,0,0,0-0.1c0-0.1,0.1-0.1,0.1-0.2c0.1-0.2,0.1-0.2,0.1-0.4l0-0.1
									V4.5c0.3-0.1,0.5-0.3,0.5-0.7c0-0.3-0.1-0.6-0.4-0.9c-0.2-0.2-0.2-0.3-0.2-0.4c0-0.7,0.6-1.2,1.5-1.2l0.7,0
									c0.5,0,0.7-0.1,1.1-0.2C0,1,0.1,0.9,0.3,0.9c0.1,0,0.2,0.1,0.2,0.1c0,0.2-0.3,0.3-1.1,0.5c-1.7,0.5-2.5,1.2-2.5,2.3
									c0,0.9,0.7,1.6,1.7,1.6c0.3,0,0.8-0.1,1-0.2l0.4-0.2c0.1,0,0.2,0,0.2,0c0.1,0,0.2,0.1,0.2,0.4c0,0.1,0,0.2,0.1,0.2
									c0.1,0,0.3-0.2,0.5-0.4C1.3,5,1.4,4.8,1.4,4.6C1.4,4.3,1.3,4.2,1,4C0.8,3.7,0.5,3.5,0.1,3.5c-0.3,0-0.8,0.2-1.4,0.6
									c-0.3,0.1-0.4,0.2-0.5,0.2C-2,4.3-2.1,4.2-2.1,4c0-0.2,0.1-0.2,0.4-0.4C-1.2,3.5-1.1,3.4-1,3.2C-0.4,3.1-0.2,3,0.1,2.8
									c1-0.3,1.5-0.9,1.5-1.7c0-0.7-0.5-1.2-1.1-1.2C0.3-0.1,0.2-0.1,0,0"/>
							</g>
							<g id="g4964" transform="translate(74.648697,558.666)">
								<path id="path4966" inkscape:connector-curvature="0" class="st0" d="M0,0c0.1-0.2,0.1-0.3,0.1-0.5l0-0.4
									c0-0.4,0.2-0.7,0.4-0.7c0.1,0,0.2,0,0.2,0.1l0.1,0.1l0,0c0.1,0,0.1,0,0.1-0.1l0-0.2c0-0.1,0-0.2,0-0.5c0-0.1,0-0.3,0-0.4
									c0-0.2,0-0.3-0.1-0.5c0.1-0.2,0.1-0.4,0.1-0.6c0-0.2,0-0.4-0.1-0.5c0-0.2,0.1-0.3,0.1-0.4c0-0.1,0-0.2,0-0.4
									C1-5.2,1-5.4,1-5.5l0,0C1-5.6,1-5.7,1-5.7s-0.1,0-0.1,0.1C0.8-5.5,0.7-5.5,0.7-5.5c-0.1,0-0.1,0-0.2-0.4
									c0-0.1-0.1-0.2-0.3-0.4C0.1-6.3,0.1-6.4,0-6.5C0-6.6,0-6.7,0-6.7c0,0,0,0-0.1-0.1l0,0c-0.2,0-0.4,0.4-0.6,1.1
									c-0.1,0.2-0.1,0.3-0.2,0.3c-0.1,0-0.2-0.1-0.2-0.1l-0.1-0.1c0,0,0,0-0.1,0c-0.1,0-0.2,0.2-0.3,0.3C-1.6-5.2-1.6-5-1.6-4.9
									c0,0.3,0.2,0.6,1,1c0.3,0.2,0.4,0.4,0.4,0.8c0,0.3-0.1,0.5-0.4,0.7C-0.8-2.2-0.9-2.1-1-2.1c-0.1,0-0.2-0.1-0.2-0.2
									c0-0.1,0.1-0.2,0.2-0.2c0.2-0.1,0.2-0.1,0.2-0.2c0-0.1-0.1-0.2-0.2-0.4c-0.1-0.2-0.2-0.2-0.3-0.3c0-0.3-0.2-0.5-0.5-0.7
									C-1.9-4.3-1.9-4.3-2-4.5l-0.2-0.3C-2.3-4.8-2.4-5-2.4-5.1c0-0.2,0-0.2-0.1-0.2c-0.1,0-0.3,0.1-0.4,0.4C-3-4.8-3-4.7-3.1-4.6
									c-0.1-0.1-0.1-0.1-0.4-0.1c-0.1,0-0.2,0-0.3-0.1c-0.2-0.1-0.2-0.1-0.2-0.1c0,0-0.1,0-0.1,0.1l0,0.2c0,0.3,0.1,0.7,0.3,0.9
									c-0.2,0.2-0.4,0.3-0.5,0.3c-0.1,0-0.1,0-0.1,0c0,0,0,0.1,0.1,0.2C-4.1-3-4.1-2.9-4-2.9c0.2,0.1,0.4,0.2,0.6,0.2
									c0.1,0,0.3,0,0.6-0.1c0.1,0,0.2-0.1,0.3-0.1c0.1,0,0.2,0.1,0.2,0.2c0,0.2-0.1,0.5-0.3,1C-2.8-1.4-2.9-1.1-2.9-1
									c0,0.4,0.2,0.7,0.4,0.9c-0.1,0.1-0.1,0.1-0.2,0.1c-0.1,0-0.2,0-0.3-0.1c-0.2-0.1-0.2-0.2-0.2-0.2c0,0,0-0.1,0.1-0.1
									c0.1-0.1,0.1-0.1,0.1-0.2c0-0.3-0.2-0.6-0.5-0.8c-0.1-0.4-0.2-0.6-0.6-0.7c0-0.2-0.1-0.3-0.2-0.5c-0.3-0.4-0.3-0.5-0.4-0.7
									c0-0.1-0.1-0.2-0.1-0.2c0,0-0.1,0.1-0.2,0.2c-0.1,0.1-0.1,0.2-0.2,0.2c0,0.1-0.1,0.1-0.1,0.3c-0.1,0-0.1,0-0.1,0l-0.2,0
									l-0.1,0C-6.1-2.9-6.3-3-6.4-3c0,0-0.1,0-0.1,0c-0.1,0-0.1,0.1-0.1,0.3c0,0.4,0.1,0.7,0.4,1c-0.1,0.1-0.1,0.1-0.2,0.2
									c0,0-0.1,0.1-0.1,0.1l-0.1,0.1c0,0-0.1,0-0.1,0.1c0,0.1,0.2,0.2,0.3,0.3c0.2,0.1,0.4,0.2,0.5,0.2c0.2,0,0.3,0,0.5-0.2
									c0.1-0.1,0.3-0.2,0.3-0.2c0.1,0,0.1,0,0.2,0.1c0,0,0.1,0.1,0.1,0.2c0,0.2-0.2,0.5-0.5,0.7C-5.6-0.1-5.8-0.1-6-0.1
									c-0.3,0-0.5-0.1-0.7-0.4l-0.1-0.2c0-0.1-0.1-0.1-0.1-0.1c-0.1,0-0.1,0-0.3,0.3l-0.3,0.3C-7.6-0.1-7.7,0-7.7,0.1
									c0,0.1,0,0.1-0.1,0.1c0,0,0,0-0.1,0.1c-0.2,0.2-0.4,0.4-0.5,0.9c0,0,0,0.1,0,0.1c-0.3,0.3-0.4,0.7-0.4,1c0,0,0,0.1,0,0.1
									C-8.9,2.7-8.9,2.7-9,3.1c-0.1,0.3-0.1,0.4-0.2,0.5c0,0,0,0.1,0,0.1c0,0.1,0.1,0.1,0.2,0.1c0.1,0,0.2,0,0.2,0l0.2,0l0,0.3
									c0,0.2,0,0.3,0.1,0.5c0,0.1,0,0.2,0,0.2c0,0,0,0.1,0,0.2c0,0.1,0,0.1,0,0.2c0,0,0,0.1,0,0.1c0,0,0,0.1,0.1,0.1
									c0,0,0.1,0,0.1,0C-8.2,5.2-8.1,5.1-8,5c0.4-0.3,0.6-0.7,0.6-1l0-0.1c0-0.1,0-0.1,0-0.2c0,0,0-0.1,0.1-0.2l0.1-0.2
									C-7.1,3.3-7,3.2-7,3.1C-7,3-7,2.9-7.2,2.7c-0.1-0.2-0.2-0.3-0.2-0.5c0-0.2,0.1-0.4,0.2-0.7C-7,1.3-6.9,1.2-6.8,1.2
									c0.2,0,0.3,0.2,0.4,0.8c0,0.3,0,0.6,0.1,0.8l0,0.1c0,0.1,0,0.1-0.1,0.2l-0.3,0.4C-7,3.8-7.1,4-7.1,4.3
									c0,0.3,0.2,0.5,0.5,0.5l0.1,0l0,0.1c0,0.1,0,0.2,0.1,0.3c0.1,0.2,0.2,0.4,0.2,0.4c0,0,0,0,0.1-0.1c0,0,0.1,0,0.2-0.1
									c0.1,0,0.1,0,0.2-0.1c0.1,0.2,0.1,0.3,0.2,0.4C-5.5,5.8-5.3,6-5.2,6c0,0,0.1,0,0.2-0.1l0.2-0.2c0,0,0.1-0.1,0.1-0.2l0-0.1
									c0.1,0,0.1,0.1,0.1,0.1c0.1,0,0.1,0.1,0.2,0.1c0.1,0.1,0.2,0.1,0.2,0.1c0.1,0,0.1,0.1,0.1,0.1c0,0,0.1-0.1,0.1-0.4
									C-3.9,5-3.9,5-3.9,4.8c0.3,0,0.5-0.2,0.5-0.6c0-0.3-0.2-0.7-0.5-1.1C-4,3-4.1,3-4.1,2.9c0-0.9,0.3-1.2,1.5-1.3
									c0.7-0.1,0.9-0.1,1.8-0.4C-0.3,1-0.1,1,0.1,1C0.3,1,0.4,1,0.4,1.2c0,0.2-0.1,0.3-1,0.4C-2.5,2-3.3,2.7-3.3,3.9
									c0,0.9,0.7,1.6,1.6,1.6c0.4,0,0.8-0.1,1.3-0.5c0.5-0.3,0.6-0.4,0.8-0.4c0.1,0,0.2,0.1,0.2,0.3c0,0.1,0,0.2,0.1,0.2
									c0.1,0,0.2-0.1,0.3-0.2c0.2-0.2,0.2-0.3,0.2-0.6c0-0.4-0.2-0.6-0.6-0.7c0,0-0.1-0.1-0.1-0.1C0.4,3.4,0.2,3.3-0.1,3.3
									c-0.3,0-0.7,0.1-0.9,0.3L-1.6,4C-1.8,4.1-2,4.2-2.1,4.2c-0.2,0-0.3-0.1-0.3-0.3c0-0.2,0.1-0.4,0.4-0.5l0.5-0.1
									C-1.4,3.2-1.4,3.1-1.2,3c0.1,0,0.2,0,0.2,0C-0.6,3.1-0.3,3,0,2.8c0.1,0,0.2-0.1,0.2-0.1l0.3-0.1C1,2.5,1.5,1.8,1.5,1.2
									C1.5,0.5,1,0,0.2,0L0,0"/>
							</g>
							<g id="g4968" transform="translate(92.933304,558.82339)">
								<path id="path4970" inkscape:connector-curvature="0" class="st0" d="M0,0c0.2-0.2,0.4-0.4,0.7-0.4c0.1,0,0.2,0,0.3,0
									c0.1,0,0.1,0,0.1,0c0.1,0,0.1,0,0.1-0.1c0,0,0-0.1-0.1-0.2C1.1-0.7,1-0.7,1-0.8L1-1L0.9-1.2L0.7-1.3l0,0v-0.1v0
									c0-0.3-0.1-0.4-0.3-0.5c0,0,0,0-0.1-0.1l0-0.1c0-0.2-0.1-0.3-0.1-0.4c0-0.1-0.1-0.2-0.2-0.3C-0.1-3-0.2-3.2-0.3-3.3
									c0-0.1-0.1-0.1-0.1-0.1c-0.1,0-0.2,0.1-0.2,0.3c0,0,0-0.1-0.1-0.1l-0.1-0.1L-1-3.4c-0.1-0.1-0.1-0.1-0.2-0.1l-0.1-0.1
									c0,0,0,0-0.1,0c-0.1,0-0.1,0.1-0.2,0.3l-0.1,0.3c0,0.1,0,0.2,0,0.3c0,0.2,0,0.2,0.1,0.4c-0.2,0-0.3,0-0.4-0.1
									c0,0-0.1,0-0.1,0c0,0-0.1,0-0.1,0.1c0,0,0,0.1,0,0.2l0.1,0.4c0.1,0.3,0.4,0.5,0.7,0.5c0.1,0,0.2,0,0.3-0.1
									c0.1,0,0.1,0,0.2,0c0.1,0,0.2,0.1,0.2,0.2c0,0.1,0,0.1-0.1,0.1c0,0-0.1,0-0.4,0.1c-0.2,0.1-0.3,0.1-0.5,0.3
									c-0.1,0.2-0.2,0.2-0.3,0.2c0,0-0.1,0-0.1-0.1l0-0.1l0-0.1c0-0.3-0.1-0.6-0.3-1l-0.3-0.5c-0.1-0.3-0.2-0.4-0.2-0.6
									c0-0.2,0.1-0.4,0.2-0.4l0.2,0c0,0,0,0,0.1,0c0,0,0,0,0-0.1c0,0,0-0.1-0.1-0.1c0,0-0.1-0.1-0.2-0.2C-2.5-4-2.7-4.1-2.9-4.1
									C-3-4.4-3.2-4.6-3.6-4.7l0-0.1C-3.8-5-4-5.2-4.2-5.2h0c0-0.2-0.2-0.4-0.4-0.5C-4.8-5.9-4.8-5.9-4.9-6c0,0,0,0-0.1-0.1
									C-5-6.2-5-6.2-5.1-6.2c-0.1,0-0.2,0.1-0.3,0.3c0,0-0.1,0-0.1-0.1C-5.5-6-5.6-6.1-5.6-6.1c0,0-0.2-0.1-0.4-0.1
									c-0.3-0.1-0.5-0.2-0.5-0.3l-0.1-0.2l0,0c-0.1,0-0.1,0.1-0.1,0.2C-6.9-6.3-6.9-6-6.9-5.9c0,0.4,0.1,0.6,0.5,1l0,0.1
									c0,0.6,0.4,1,1.1,1l0.1,0l0.4,0l0,0c0.2,0,0.4,0.1,0.6,0.2C-4-3.4-3.9-3.3-3.9-3c0,0.1,0,0.2-0.1,0.4
									c-0.1,0.2-0.1,0.3-0.1,0.5c0,0.4,0.3,1,0.8,1.3c0.1,0.1,0.2,0.2,0.2,0.2c0,0,0,0,0,0c0,0-0.1,0-0.1-0.1
									c-0.1,0-0.1-0.1-0.3-0.2l-0.2-0.1L-3.9-1C-4-1-4-1-4-1.1c0,0,0-0.1,0-0.1c0,0,0-0.1,0-0.1c0,0,0-0.1-0.1-0.1l-0.1-0.2
									C-4.3-1.8-4.4-1.9-4.6-2c-0.1-0.3-0.3-0.5-0.5-0.6C-5.3-3-5.5-3.1-5.8-3.2c0-0.2-0.1-0.3-0.3-0.5c-0.1-0.1-0.1-0.1-0.1-0.2
									C-6.4-4-6.4-4-6.4-4c0,0-0.2,0.1-0.2,0.2c0,0-0.1,0.1-0.1,0.1l-0.1,0.2c0,0.1-0.1,0.1-0.1,0.1l-0.1,0l-0.2,0
									c-0.1,0-0.4-0.1-0.4-0.2l-0.1-0.2c0,0,0,0-0.1,0C-7.9-3.9-8-3.7-8-3.4c0,0.3,0,0.5,0.2,0.6l0.3,0.4c0,0.1,0.1,0.1,0.1,0.2
									c0,0,0,0.1-0.1,0.1C-7.6-2-7.7-1.9-7.7-1.9l-0.2,0c0,0-0.1,0-0.1,0c0,0,0,0,0,0.1c0.1,0.1,0.2,0.2,0.3,0.2
									c0.3,0.2,0.4,0.2,0.6,0.2c0.2,0,0.4-0.1,0.6-0.2l0.3-0.2c0,0,0.1,0,0.1,0c0.1,0,0.2,0.1,0.3,0.3C-5.6-1.3-5.6-1.1-5.6-1
									c0,0.4-0.3,0.7-0.7,0.7c-0.2,0-0.4-0.1-0.5-0.2c-0.1,0-0.1-0.1-0.1-0.1L-7-0.8c0,0-0.1-0.1-0.1-0.1c-0.1,0-0.2,0.2-0.3,0.3
									c-0.1,0.1-0.1,0.2-0.1,0.4C-7.6,0-7.6,0.2-7.6,0.4l0,0.3C-7.7,0.9-7.8,1-7.8,1.3c0,0.1,0,0.2,0.1,0.4
									c-0.1,0.1-0.1,0.3-0.1,0.5l0,0.1l0,0.1l0,0.1C-7.8,2.7-7.9,2.8-8,3.2C-8,3.5-8.1,3.6-8.1,3.7c0,0,0,0.1,0,0.1
									c0,0.1,0.1,0.1,0.3,0.1l0.1,0c0,0.1,0,0.1,0,0.2c0,0.1,0,0.3,0.1,0.4c0.1,0.2,0.1,0.2,0.1,0.3c0,0.1,0,0.3,0,0.3l-0.1,0.2
									c0,0,0,0.1,0,0.1c0,0,0,0,0.1,0c0.2,0,0.6-0.2,0.9-0.5c0.3-0.3,0.4-0.5,0.4-1l0-0.2C-6.1,3.4-6,3.2-6,3
									C-6,2.8-6,2.7-6.2,2.6c-0.3-0.3-0.3-0.4-0.3-0.8c0-0.6,0.2-0.9,0.5-0.9c0.3,0,0.5,0.3,0.5,0.7l0,0.4c0,0.1,0,0.2,0.1,0.4
									c0,0.1,0,0.2,0,0.3c0,0.1-0.1,0.3-0.4,0.6c-0.3,0.3-0.4,0.5-0.4,0.8c0,0.3,0.2,0.6,0.5,0.6c0.1,0,0.1,0,0.2-0.1
									c0,0.2,0,0.2,0.1,0.5c0.1,0.2,0.2,0.3,0.2,0.3c0,0,0,0,0.1,0c0,0,0.1-0.1,0.1-0.1c0.1,0,0.1-0.1,0.1-0.1
									c0,0,0.1-0.1,0.1-0.1c0.1,0.2,0.1,0.3,0.3,0.5c0.1,0.1,0.2,0.2,0.2,0.2c0,0,0.1,0,0.1-0.1L-4,5.6l0.2-0.2
									c0.1-0.1,0.1-0.1,0.1-0.3l0.1,0.1l0.2,0.1c0,0,0.1,0,0.1,0.1c0,0,0.1,0,0.1,0c0,0,0,0,0-0.1l0.1-0.2L-3,4.8
									c0-0.1,0.1-0.1,0.1-0.3l0-0.1l0.1,0c0.2,0,0.4-0.2,0.4-0.5c0-0.4-0.3-0.9-0.7-1.1c0-0.1,0-0.2,0-0.3c0-0.8,0.2-1,1.5-1.2
									c0.3,0,0.6-0.1,0.9-0.2c0,0,0.3-0.1,0.8-0.3c0.3-0.1,0.5-0.1,0.6-0.1c0.2,0,0.2,0,0.2,0.1C0.9,1,0.7,1.2,0,1.4l-0.9,0.4
									c-0.9,0.4-1.4,0.9-1.4,1.8c0,1,0.7,1.7,1.7,1.7c0.4,0,0.7-0.1,1.2-0.3c0.7-0.2,0.7-0.3,0.8-0.3c0.1,0,0.2,0.1,0.2,0.3
									c0,0.2,0.1,0.2,0.1,0.2c0.1,0,0.3-0.1,0.4-0.3c0.1-0.2,0.1-0.4,0.1-0.5c0-0.3-0.2-0.6-0.5-0.6C1.6,3.4,1.3,3.3,1,3.3
									c-0.4,0-0.6,0.1-1.3,0.5C-0.6,4-0.7,4-0.9,4c-0.2,0-0.4-0.2-0.4-0.4c0-0.2,0.2-0.3,0.5-0.4C-0.7,3.2-0.6,3.2-0.5,3
									c0.1,0,0.1,0,0.2,0c0.3,0,0.8-0.2,1.1-0.5C1.4,2.4,2,1.7,2,1.1c0-0.6-0.6-1.2-1.2-1.2C0.6-0.1,0.3-0.1,0,0"/>
							</g>
							<g id="g4972" transform="translate(75.489197,573.9034)">
								<path id="path4974" inkscape:connector-curvature="0" class="st3" d="M0,0c0,0.1,0,0.2,0,0.3l0,0.1l0,0.2l0,0.1
									C0,0.8,0,0.9-0.1,1l-0.1,0.2c0,0.1-0.1,0.1-0.1,0.2c0,0,0,0.1,0,0.1c0,0,0,0.1,0.1,0.1c0,0,0,0,0.1-0.1c0,0,0.1,0,0.1,0
									c0.1,0,0.1,0.1,0.1,0.3C0.1,1.9,0.1,2,0,2l-0.2,0.2l-0.1,0.1c0,0-0.1,0.1-0.1,0.1c0,0,0,0.1,0.1,0.1c0,0,0.1,0,0.2-0.1l0,0
									c0,0,0.1,0,0.1,0.1l0,0l0,0.2L0,3c0,0.1,0,0.1-0.1,0.1l0,0L-0.4,3l0,0c-0.3,0-0.7,0.3-0.8,0.7l-0.2,0.7
									C-1.5,4.6-1.7,4.8-1.9,5C-2,5.1-2.1,5.1-2.1,5.1l-0.2,0c0,0-0.1,0-0.1,0.1c0,0,0,0.1,0.1,0.1l0.3,0c0.1,0,0.3-0.1,0.6-0.1
									C-1,5-0.8,4.9-0.6,4.9c0.5,0,0.8,0.3,0.8,0.8C0.2,6,0,6.4-0.2,6.6c-0.1,0.1-0.3,0.2-0.3,0.2c0,0-0.1,0-0.1-0.1l0-0.1l0,0
									c0-0.1,0-0.1-0.1-0.1c-0.1,0-0.1,0.1-0.2,0.2c-0.2,0.4-0.5,0.7-0.8,0.7c-0.1,0-0.1,0-0.1-0.1c0,0,0-0.1,0.1-0.2L-1.7,7
									c0-0.1,0-0.1,0-0.1c0,0,0,0,0,0c0,0-0.1,0-0.2,0.1L-2,7.2l-0.1,0.2c-0.1,0.2-0.2,0.2-0.4,0.4c-0.1,0.1-0.2,0.1-0.3,0.1
									c0,0-0.1,0-0.1,0c0,0-0.1,0-0.1-0.1c0,0,0-0.1,0-0.1c0.1-0.1,0.1-0.2,0.1-0.2c0,0,0-0.1-0.1-0.1c-0.1,0-0.3,0.2-0.4,0.4
									c-0.1,0.2-0.2,0.4-0.2,0.6c0,0.5,0.3,0.8,0.8,0.8C-2.5,9.3-2.2,9.2-2,9l0.5-0.3C-1.3,8.6-1,8.5-0.9,8.5c0.1,0,0.2,0,0.3,0.1
									c0,0,0.1,0,0.1,0.1c0,0,0.1,0,0.1,0.1c0,0,0,0,0,0l-0.1,0l-0.2,0c-0.1,0-0.2,0-0.3,0.1C-1.3,9-1.5,9.1-1.5,9.2
									c-0.2,0.1-0.3,0.2-0.3,0.2C-2,9.4-2,9.4-2,9.5c0,0,0,0,0,0c0,0,0.1,0,0.1,0c0.2-0.1,0.3-0.1,0.4-0.1L-1,9.2
									C-0.8,9.1-0.5,9-0.3,9C-0.1,9,0,9.2,0,9.4C0,9.5,0,9.7-0.2,9.8c0,0,0,0.1-0.1,0.1c0,0-0.1,0-0.1-0.1l0-0.1l0-0.1
									c0-0.1-0.1-0.2-0.2-0.2c0,0-0.1,0-0.2,0l-0.7,0.2c-0.6,0.2-0.8,0.2-1.1,0.2c-0.8,0-1.4-0.6-1.4-1.3c0-0.8,0.6-1.4,2-1.9
									c1.4-0.5,1.6-0.6,1.6-1c0-0.2-0.2-0.4-0.5-0.4c-0.1,0-0.2,0-0.3,0c0,0-0.3,0.1-0.7,0.2c-0.4,0.1-0.8,0.1-1.3,0.1
									c-1,0-1.6-0.2-2.1-0.7c-0.1-0.1-0.2-0.1-0.3-0.1l-0.1,0l-0.1,0l0,0c-0.1,0-0.2-0.1-0.3-0.2C-6,4.5-6.1,4.4-6.1,4.4
									c0,0-0.1-0.1-0.1-0.1c-0.1,0-0.2,0.1-0.3,0.3c-0.1,0.1-0.1,0.2-0.2,0.3l-0.2,0.2c0,0-0.1,0.1-0.1,0.1c0,0,0,0.1,0,0.1
									c0.1,0.1,0.1,0.2,0.1,0.3c0,0.1,0,0.1,0.1,0.1c0.1,0,0.1-0.1,0.1-0.3c0-0.1,0-0.2,0.1-0.3l0.1-0.3c0,0,0.1-0.1,0.1-0.1
									C-6.2,4.8-6,5.1-6,5.3c0,0.2,0.1,0.3,0.1,0.3c0,0,0,0,0,0c0,0,0-0.1,0.1-0.2c0-0.1,0.1-0.1,0.1-0.2c0.1,0,0.1-0.1,0.1-0.1
									l0,0c0.1,0,0.1,0.1,0.1,0.3l0,0.1l0,0.1l0,0.1c0,0.1,0,0.1,0.1,0.1c0,0,0.1,0,0.1,0l0.1-0.1C-5,5.7-5,5.7-4.9,5.7
									c0.1,0,0.1,0,0.1,0.1c0,0.1,0,0.1-0.1,0.2l-0.1,0.1C-5,6.3-5.1,6.4-5.2,6.4l-0.1,0l-0.1-0.1c0,0-0.1,0-0.1,0c0,0,0,0,0,0
									c0,0.1,0.1,0.2,0.2,0.4c0.1,0.1,0.1,0.4,0.2,0.8C-5.1,8.1-5,8.5-5,8.5c0.1,0,0.1,0,0.1-0.2l0-0.1l0-0.1c0-0.1,0-0.2,0-0.2
									c0.1,0,0.2,0.1,0.3,0.4c0,0.1,0.1,0.2,0.1,0.2l0,0l-0.2,0.4L-5,9C-5,9-5,9-5,9v0.1v0.1l0,0.1l0,0.1l-0.1,0.1
									c-0.2-0.1-0.3-0.2-0.4-0.3c-0.1-0.1-0.1-0.2-0.2-0.2c0,0-0.1,0-0.1,0.1c0,0,0,0.1,0,0.2l0,0.1c0,0.2-0.1,0.4-0.4,0.6
									l-0.1-0.1l-0.1-0.1l-0.1-0.1c0,0-0.1-0.1-0.1-0.2c0,0,0-0.1,0-0.1l0,0l0,0c0-0.1,0-0.1,0-0.1l0,0l-0.1,0.1l-0.1,0.1
									l-0.2,0.1L-7,9.6c0,0,0-0.1,0-0.1c0-0.1,0-0.1-0.1-0.2l0-0.2l0-0.2l0,0c0-0.1,0-0.1-0.1-0.1c0,0-0.1,0-0.1,0.1
									c0,0-0.1,0-0.2,0c-0.2,0-0.3-0.1-0.3-0.3c0-0.2,0.1-0.4,0.2-0.6l0.1-0.2c0,0,0.1-0.1,0.1-0.1l0,0.2l0,0.2l0,0.1
									c0,0.1,0,0.1,0.1,0.1c0.1,0,0.1-0.1,0.1-0.2l0.1-0.4L-7,7.3c0-0.1,0.1-0.3,0.1-0.4c0.1-0.2,0.1-0.3,0.2-0.4
									c0.1-0.1,0.1-0.2,0.1-0.2c0,0,0,0,0,0c0,0-0.1,0-0.1,0c0,0-0.1,0-0.1,0l-0.1,0c-0.2,0-0.2-0.1-0.2-0.8c0-0.4,0.1-1,0.2-1.3
									l0.2-0.6c0-0.1,0.1-0.2,0.1-0.3c0-0.8-1-2-2.1-2.5C-9.2,0.7-9.3,0.5-9.4,0l0-0.1C-9.2,0-9.1,0-9,0c0.3,0.1,0.4,0.1,0.4,0.3
									l0,0.1c0,0.1,0,0.1,0.3,0.2c0.1,0,0.1,0.1,0.2,0.1C-8,0.9-8,0.9-8,0.9c0,0,0,0,0,0l0,0L-8,0.6l0-0.1c0-0.2,0.1-0.4,0.3-0.5
									c0,0.2,0.1,0.3,0.1,0.4l0.2,0.3c0.1,0.1,0.1,0.2,0.1,0.5c0,0.1,0,0.2,0,0.3l0,0.1c0,0.1,0,0.1,0.1,0.1c0,0,0.1,0,0.1,0
									l0-0.2c0,0,0.1-0.1,0.1-0.1c0.1,0,0.2,0.1,0.4,0.4C-6.6,1.8-6.6,1.9-6.6,2l0,0.1l0,0.2l0,0c0,0.1,0,0.1,0.1,0.1c0,0,0,0,0,0
									l0.1-0.2C-6.4,2.1-6.4,2-6.3,2C-6.2,2-6.1,2.1-6,2.3C-6,2.4-5.9,2.6-5.9,2.7c0,0.2,0,0.3,0.1,0.3c0,0,0,0,0.1,0l0-0.1
									c0,0,0-0.1,0.1-0.1c0,0,0.2,0.1,0.2,0.3c0,0,0,0.1,0,0.1c0,0,0,0.1-0.1,0.1c-0.1,0.1-0.1,0.1-0.1,0.2c0,0.1,0,0.2,0.1,0.4
									C-5.4,4-5.4,4.1-5.3,4.1c0.1,0.3,0.2,0.3,0.2,0.3c0,0,0.1,0,0.1-0.1c0,0,0-0.1,0-0.1c0-0.1,0-0.1,0-0.1c0,0,0-0.1,0.1-0.1
									c0,0,0.1,0,0.2,0.1c0,0,0.1,0.1,0.3,0.1l0.3,0.1c0.1,0,0.1,0,0.2,0c0.1,0,0.1,0,0.2,0c0.1,0,0.2,0,0.2,0
									c0.1,0,0.2,0.1,0.2,0.2c0,0.1-0.1,0.2-0.2,0.3c0,0-0.1,0.1-0.1,0.1l0,0c0,0,0,0,0.1,0c0.1,0,0.2-0.2,0.4-0.4
									c0.9-1.4,1.2-1.8,1.8-2C-0.7,2.5-0.5,2.3-0.5,2c0-0.2-0.1-0.4-0.3-0.7c-0.5-0.6-0.6-0.9-0.6-1.3l0-0.1c0.1,0,0.1,0,0.1,0.1
									c0.1,0,0.1,0.1,0.2,0.1L-0.9,0c0.1,0,0.1,0.1,0.1,0.2l0,0l0,0.2l0,0c0,0.1,0,0.2,0.1,0.2c0,0,0,0,0.1,0c0,0,0.1,0,0.1-0.1
									l0.2-0.4C-0.3,0.2-0.2,0.1,0,0"/>
							</g>
							<g id="g4976" transform="translate(67.016907,581.5222)">
								<path id="path4978" inkscape:connector-curvature="0" class="st3" d="M0,0c-0.1,0-0.1-0.1-0.1-0.2l0-0.2c0-0.2,0-0.2,0-0.3
									c0-0.2,0-0.3,0.1-0.3c0.1,0,0.2,0.1,0.2,0.3c0,0.1,0,0.2,0,0.2c0,0.1,0,0.2,0,0.2C0.1-0.1,0.1,0,0,0"/>
							</g>
							<g id="g4980" transform="translate(66.052399,583.1613)">
								<path id="path4982" inkscape:connector-curvature="0" class="st3" d="M0,0L0,0c0-0.2,0-0.4-0.1-0.8c0-0.1,0-0.1,0-0.2
									c0-0.1,0-0.1,0.1-0.2C0-1.3,0-1.3,0-1.3l0.1-0.1l0-0.1c0-0.1,0-0.1,0-0.2c0-0.1,0-0.2,0-0.3c0-0.1,0-0.1,0-0.1
									c0,0-0.1,0.1-0.2,0.3c-0.1,0.3-0.2,0.3-0.3,0.3c-0.1,0-0.2,0-0.3-0.1c0,0,0.1-0.1,0.1-0.1c0,0,0-0.1,0.1-0.2l0.1-0.3
									c0.1-0.2,0.2-0.3,0.2-0.3c0-0.1,0.1-0.1,0.1-0.1c0,0,0.1,0,0.2-0.1c0.1,0,0.1-0.1,0.1-0.1c0,0,0-0.1-0.1-0.1h0L0-2.9l-0.1,0
									c0,0-0.1,0-0.1-0.1c0-0.3,0.2-0.6,0.6-0.9c0,0,0.1-0.1,0.1-0.1c0,0,0-0.1-0.1-0.1c0,0-0.1,0-0.1,0c0,0-0.1,0-0.1,0
									c-0.1,0-0.1,0-0.1-0.1c0-0.1,0.1-0.2,0.2-0.5C0.5-4.8,0.6-4.9,0.8-5l0.5-0.2c0,0,0,0,0-0.1c0,0,0-0.1-0.1-0.1l-0.1,0L1-5.3
									l-0.1,0h0c-0.1,0-0.1,0-0.1,0c0-0.1,0.1-0.2,0.2-0.3C1.1-5.9,1.2-6,1.2-6c0,0,0,0,0.1,0.1l0.1,0.2c0,0,0.1,0.1,0.3,0.2
									C1.8-5.5,1.9-5.4,2-5.4l0.2,0c0,0,0.1,0,0.1,0.1l0,0l0,0.2l0,0.2l0,0.2l0,0.2c0,0.1,0,0.1-0.1,0.1c0,0-0.1,0-0.1-0.1
									C1.8-4.6,1.7-4.7,1.5-4.7c-0.6,0-1,1-1,2.3c0,0.1,0,0.3,0,0.4c0,0.3,0,0.4,0,0.5c0,0.6-0.1,1-0.4,1.2L0.1-0.1L0,0"/>
							</g>
							<g id="g4984" transform="translate(67.408005,575.47951)">
								<path id="path4986" inkscape:connector-curvature="0" class="st3" d="M0,0c-0.1,0-0.2,0-0.3,0.1c0,0-0.1,0-0.2,0.1
									c-0.2,0.1-0.3,0.1-0.4,0.1c-0.2,0-0.3-0.1-0.4-0.2L-1.2,0L-1-0.1l0.2-0.2c0.1,0,0.1-0.1,0.2-0.1C-0.5-0.4-0.3-0.3,0,0"/>
							</g>
							<g id="g4988" transform="translate(71.453903,573.567)">
								<path id="path4990" inkscape:connector-curvature="0" class="st3" d="M0,0c0.1,0.1,0.1,0.2,0.2,0.3c0.3,0.3,0.4,0.4,0.4,0.6
									V1v0.1c0,0.1,0,0.2,0.1,0.2c0,0,0.1,0,0.1,0l0.1-0.1c0,0,0,0,0.1,0s0.1,0,0.2,0.1l0.1,0.1c0.1,0.1,0.1,0.1,0.1,0.2
									c0,0,0,0.1,0,0.1c0,0,0,0.1-0.1,0.2c0,0.1,0,0.1,0,0.2c0,0.1,0,0.1,0.1,0.1c0,0,0.1,0,0.1,0L1.4,2c0,0,0,0,0.1,0
									c0,0,0.1,0,0.1,0.1l0.1,0.2c0,0,0,0.1,0,0.1c0,0,0,0.1-0.1,0.1L1.5,2.4C1.3,2.5,1.1,2.8,1.1,3.1c0,0,0,0.1,0,0.1l0.1,0.2
									c0,0.1,0,0.1,0,0.2c0,0.1,0,0.2-0.1,0.3C1.1,4,1,4.1,1,4.1C1,4.3,0.9,4.3,0.9,4.3l-0.1,0l-0.1,0L0.6,4.2L0.5,4L0.4,4
									c-0.1,0-0.2-0.2-0.2-0.4c0-0.3,0-0.3,0.4-1C0.7,2.4,0.8,2.2,0.8,2c0-0.4-0.4-0.7-1.2-0.9L-0.9,1c-0.4-0.1-0.6-0.3-0.6-0.7
									C-1.3,0.3-1.3,0.3-1,0.3l0.2,0h0c0.1,0,0.2,0,0.2,0.1c0.1,0.1,0.2,0.2,0.3,0.3l0.2,0.1l0.1,0.1l0,0c0,0,0.1,0,0.1,0
									c0,0,0-0.1-0.1-0.2c-0.1-0.1-0.2-0.2-0.2-0.4C-0.1,0.2-0.1,0.1,0,0"/>
							</g>
							<g id="g4992" transform="translate(70.130005,575.1962)">
								<path id="path4994" inkscape:connector-curvature="0" class="st3" d="M0,0c0.1-0.1,0.2-0.2,0.3-0.3c0.1-0.1,0.1-0.1,0.2-0.1
									c0,0,0.1,0,0.2,0l0.1,0C1-0.4,1-0.3,1-0.3c0,0,0,0.1-0.1,0.1L0.8-0.1L0.7,0C0.7,0.1,0.5,0.1,0.4,0.1C0.3,0.1,0.2,0.1,0,0"/>
							</g>
							<g id="g4996" transform="translate(73.534607,574.6282)">
								<path id="path4998" inkscape:connector-curvature="0" class="st3" d="M0,0L0,0l0.2,0l0.1,0l0,0c0.2,0,0.5,0.2,0.5,0.4
									c0,0.1-0.1,0.1-0.2,0.1C0.3,0.5,0.1,0.4,0,0"/>
							</g>
							<g id="g5000" transform="translate(95.098404,573.9034)">
								<path id="path5002" inkscape:connector-curvature="0" class="st3" d="M0,0c0,0.1,0,0.1,0,0.2l0,0.1c0,0.2,0,0.3,0,0.4
									C0,0.8,0,0.9-0.1,1l-0.1,0.2c-0.1,0.1-0.1,0.2-0.1,0.3c0,0.1,0,0.1,0.1,0.1l0,0c0,0,0,0,0.1-0.1c0,0,0.1,0,0.1,0
									c0.1,0,0.1,0.1,0.1,0.3C0.1,2,0,2.1-0.1,2.2l-0.1,0.1c0,0,0,0.1,0,0.1c0,0,0,0.1,0.1,0.1c0,0,0.1,0,0.1,0l0.1,0l0,0
									c0,0,0.1,0,0.1,0.1l0,0l0,0.2C0,3,0,3.1-0.1,3.1l0,0L-0.4,3l0,0c-0.3,0-0.7,0.3-0.8,0.7l-0.2,0.7C-1.5,4.6-1.7,4.8-1.9,5
									C-2,5.1-2.1,5.1-2.1,5.1l-0.2,0c0,0-0.1,0-0.1,0.1c0,0,0,0.1,0.1,0.1c0.3,0,0.6-0.1,0.9-0.2C-1,5-0.8,4.9-0.6,4.9
									c0.5,0,0.8,0.3,0.8,0.7c0,0.2-0.1,0.5-0.2,0.7c-0.1,0.2-0.3,0.3-0.5,0.5c0,0-0.1,0-0.1,0c0,0-0.1,0-0.1-0.1l0-0.1l0,0
									c0-0.1,0-0.1-0.1-0.1c-0.1,0-0.1,0.1-0.2,0.2c-0.2,0.4-0.5,0.7-0.8,0.7c-0.1,0-0.1,0-0.1-0.1c0,0,0-0.1,0.1-0.1
									c0-0.1,0.1-0.1,0.1-0.2c0,0,0-0.1,0-0.1c0,0,0,0,0,0c0,0-0.1,0-0.2,0.1C-2,7.1-2,7.2-2,7.2l-0.1,0.2
									c-0.1,0.2-0.2,0.3-0.4,0.4l-0.3,0.1c-0.1,0-0.1,0-0.1,0c0,0,0,0,0,0c0,0,0-0.1,0-0.1c0.1-0.1,0.1-0.2,0.1-0.2
									c0,0,0-0.1-0.1-0.1c-0.1,0-0.2,0.1-0.4,0.4c-0.1,0.2-0.2,0.4-0.2,0.6c0,0.4,0.3,0.8,0.8,0.8C-2.5,9.3-2.2,9.2-2,9l0.5-0.3
									C-1.3,8.6-1,8.5-0.9,8.5c0.1,0,0.1,0,0.3,0.1c0.1,0,0.1,0,0.1,0.1c0,0,0,0,0,0.1c0,0,0,0.1-0.1,0.1c-0.2,0-0.7,0.2-1,0.4
									c-0.2,0.1-0.3,0.2-0.3,0.2C-2,9.4-2,9.4-2,9.5c0,0,0,0,0,0l0.1,0l0.5-0.2L-1,9.2C-0.8,9.1-0.5,9-0.3,9C-0.1,9,0,9.1,0,9.3
									C0,9.4,0,9.6,0,9.6c-0.1,0.1-0.1,0.2-0.2,0.2c0,0-0.1,0-0.1-0.1l0-0.1l0-0.1c0-0.1-0.1-0.2-0.2-0.2c0,0-0.1,0-0.2,0
									l-0.7,0.2c-0.6,0.2-0.8,0.2-1.1,0.2c-0.8,0-1.4-0.6-1.4-1.3c0-0.8,0.6-1.4,2-1.9c1.4-0.5,1.6-0.6,1.6-1
									c0-0.2-0.2-0.4-0.5-0.4c-0.1,0-0.2,0-0.2,0c-0.1,0-0.3,0.1-0.7,0.2c-0.4,0.1-0.8,0.1-1.3,0.1c-1,0-1.5-0.2-2.1-0.7
									c-0.1-0.1-0.2-0.1-0.3-0.1l-0.1,0l-0.2,0c-0.1,0-0.2-0.1-0.3-0.2l-0.2-0.3c0,0-0.1-0.1-0.1-0.1c-0.1,0-0.2,0.1-0.3,0.3
									c-0.1,0.1-0.1,0.2-0.2,0.3l-0.2,0.2c0,0-0.1,0.1-0.1,0.1s0,0.1,0.1,0.1c0,0,0.1,0.1,0.1,0.1c0,0.1,0.1,0.1,0.1,0.1l0,0.1
									c0,0,0,0.1,0.1,0.1c0.1,0,0.1,0,0.1-0.3c0-0.1,0-0.2,0.1-0.3l0.1-0.3c0,0,0.1-0.1,0.1-0.1C-6.2,4.8-6,5.1-6,5.3
									c0,0.2,0.1,0.3,0.1,0.3c0,0,0.1,0,0.2-0.2c0-0.1,0.1-0.1,0.1-0.2c0.1,0,0.1-0.1,0.1-0.1h0c0.1,0,0.1,0.1,0.1,0.3l0,0.1
									l0,0.1l0,0.1c0,0.1,0,0.1,0.1,0.1c0,0,0.1,0,0.1,0l0.1-0.1C-5,5.7-5,5.7-4.9,5.7c0.1,0,0.1,0,0.1,0.1c0,0.1,0,0.1-0.1,0.2
									c0,0,0,0.1-0.1,0.1C-5,6.3-5.1,6.4-5.1,6.4l-0.1,0l-0.1-0.1c0,0-0.1,0-0.1,0c0,0,0,0,0,0c0,0.1,0.1,0.2,0.2,0.4
									c0.1,0.1,0.1,0.4,0.2,0.8l0.1,0.5C-5.1,8.4-5,8.5-5,8.5c0,0,0,0,0,0l0-0.2V8.2c0-0.2,0-0.3,0-0.3c0,0,0.1,0.1,0.2,0.1
									c0,0.1,0.1,0.1,0.1,0.2c0,0.1,0.1,0.2,0.1,0.3C-4.5,8.8-4.6,8.9-5,9C-5,9-5,9-5,9l0,0.1v0.2l0,0.1l0,0.1l-0.1,0.1l-0.1-0.1
									c-0.2-0.1-0.3-0.2-0.3-0.3c-0.1-0.1-0.1-0.1-0.2-0.1c0,0-0.1,0-0.1,0l0,0.2l0,0c0,0.2-0.1,0.5-0.4,0.6l-0.1-0.1l-0.1-0.1
									l-0.1-0.1c-0.1-0.1-0.1-0.2-0.1-0.3l0,0l0,0c0-0.1,0-0.1-0.1-0.1l0,0l-0.1,0.1l-0.1,0.1l-0.2,0.1L-7,9.6
									c-0.1-0.2-0.1-0.2-0.1-0.5V9c0-0.1,0-0.2-0.1-0.2c0,0-0.1,0-0.1,0.1c0,0-0.1,0-0.2,0c-0.2,0-0.3-0.1-0.3-0.3
									c0-0.2,0-0.3,0.2-0.5C-7.5,8-7.4,7.9-7.4,7.9c0,0,0,0.1,0,0.2l0,0.2l0,0.1c0,0.1,0,0.1,0.1,0.1c0.1,0,0.1-0.1,0.1-0.2
									l0.1-0.4L-7,7.3c0-0.1,0.1-0.3,0.1-0.4c0.1-0.2,0.1-0.3,0.2-0.4c0.1-0.1,0.1-0.2,0.1-0.2c0,0,0,0,0,0c0,0-0.1,0-0.1,0
									c0,0-0.1,0-0.1,0l-0.1,0c-0.2,0-0.2-0.1-0.2-0.8c0-0.4,0.1-1,0.2-1.3l0.2-0.6c0-0.1,0.1-0.2,0.1-0.3c0-0.8-1-2-2.1-2.5
									c-0.4-0.2-0.6-0.4-0.6-1C-9.2,0-9.1,0-9,0c0.3,0.1,0.4,0.1,0.4,0.3l0,0.1c0,0.1,0.1,0.1,0.3,0.2c0.1,0,0.1,0.1,0.2,0.1
									C-8,0.9-8,0.9-8,0.9c0,0,0,0,0-0.1l0,0L-8,0.6l0-0.1c0-0.2,0.1-0.4,0.3-0.5c0,0.1,0,0.1,0,0.1c0,0.2,0.1,0.3,0.1,0.3
									l0.2,0.3c0.1,0.1,0.1,0.2,0.1,0.4l0,0.3l0,0.1c0,0.1,0,0.1,0.1,0.1c0,0,0.1,0,0.1,0l0-0.2c0,0,0.1-0.1,0.1-0.1
									c0.1,0,0.2,0.1,0.4,0.4C-6.6,1.8-6.6,1.9-6.6,2c0,0.1,0,0.2,0,0.3l0,0.1c0,0.1,0,0.1,0.1,0.1c0,0,0,0,0.1,0l0.1-0.2
									C-6.4,2.1-6.3,2-6.3,2C-6.1,2-6,2.4-5.9,2.7c0,0.2,0,0.3,0.1,0.3c0,0,0,0,0.1,0l0-0.1c0,0,0-0.1,0.1-0.1c0,0,0.1,0,0.1,0.1
									c0,0,0.1,0.1,0.1,0.1c0,0,0,0.1,0,0.1c0,0.1,0,0.1-0.1,0.1c-0.1,0.1-0.1,0.1-0.1,0.2c0,0.2,0.1,0.3,0.3,0.6
									c0.2,0.3,0.2,0.3,0.2,0.3c0,0,0.1,0,0.1-0.1c0,0,0-0.1,0-0.1c0-0.1,0-0.1,0-0.1c0,0,0-0.1,0.1-0.1c0.1,0,0.1,0,0.2,0.1
									c0,0,0.1,0.1,0.3,0.1c0.2,0.1,0.3,0.1,0.4,0.1c0.1,0,0.1,0,0.2,0c0.1,0,0.1,0,0.2,0c0.1,0,0.2,0,0.2,0
									c0.1,0,0.2,0.1,0.2,0.2c0,0,0,0.1-0.1,0.2c-0.1,0.1-0.1,0.1-0.1,0.1c0,0-0.1,0.1-0.1,0.1l0,0c0,0,0,0,0.1,0
									c0.1,0,0.2-0.2,0.4-0.4c0.8-1.3,1.2-1.8,1.8-2C-0.7,2.5-0.5,2.3-0.5,2c0-0.2-0.1-0.4-0.3-0.7c-0.4-0.6-0.6-0.9-0.6-1.3
									l0-0.1c0.1,0,0.1,0,0.1,0.1c0.1,0,0.1,0.1,0.2,0.1L-0.9,0c0.1,0,0.1,0.1,0.1,0.2l0,0l0,0.2l0,0c0,0.1,0.1,0.2,0.1,0.2
									c0,0,0.1,0,0.1-0.1l0.2-0.4C-0.3,0.2-0.2,0.1,0,0"/>
							</g>
							<g id="g5004" transform="translate(86.4814,581.1122)">
								<path id="path5006" inkscape:connector-curvature="0" class="st3" d="M0,0l0-0.2l0-0.1c0-0.2,0-0.2,0.1-0.2
									c0.1,0,0.2,0.1,0.2,0.3C0.3-0.2,0.4,0,0.4,0c0,0.1,0,0.1-0.1,0.2c0,0.1-0.1,0.2-0.2,0.2C0.1,0.4,0,0.3,0,0"/>
							</g>
							<g id="g5008" transform="translate(85.661499,583.1613)">
								<path id="path5010" inkscape:connector-curvature="0" class="st3" d="M0,0L0,0c0-0.2,0-0.4-0.1-0.5c0-0.1-0.1-0.2-0.1-0.2
									c0-0.1,0-0.1,0-0.2c0-0.1,0.1-0.3,0.2-0.3l0.1-0.1l0-0.1c0-0.1,0-0.1,0-0.2c0-0.1,0-0.2,0-0.3c0-0.1,0-0.1,0-0.1
									c0,0-0.1,0.1-0.2,0.3c-0.1,0.3-0.2,0.3-0.3,0.3c-0.1,0-0.2,0-0.3-0.1c0.1-0.1,0.2-0.3,0.3-0.5c0.2-0.4,0.2-0.4,0.5-0.6
									c0.1,0,0.1-0.1,0.1-0.1c0,0,0-0.1-0.1-0.1c0,0-0.1,0-0.1,0l-0.1,0c0,0-0.1,0-0.1-0.1c0-0.3,0.2-0.6,0.6-0.9
									C0.6-4,0.6-4,0.6-4.1c0,0,0,0,0-0.1c0,0,0,0-0.1,0c0,0-0.1,0-0.1,0c0,0-0.1,0-0.1,0c-0.1,0-0.1,0-0.1-0.1
									c0-0.1,0.1-0.3,0.2-0.5C0.5-4.8,0.7-4.9,0.8-5l0.5-0.2c0,0,0,0,0-0.1c0,0,0-0.1-0.1-0.1l-0.1,0L1-5.3l-0.1,0l0,0
									c-0.1,0-0.1,0-0.1,0c0-0.1,0-0.2,0.2-0.3C1.1-5.9,1.2-6,1.2-6c0,0,0,0,0.1,0.1l0.1,0.2c0,0,0.1,0.1,0.3,0.2
									C1.8-5.5,1.9-5.4,2-5.4c0.3,0,0.3,0,0.3,0.2c0,0,0,0.1,0,0.2c0,0.1,0,0.1,0,0.2l0,0.2l0,0.2c0,0.1,0,0.1-0.1,0.1
									c0,0-0.1,0-0.1-0.1C1.9-4.6,1.7-4.7,1.5-4.7c-0.6,0-1,0.9-1,2.3l0,0.4l0,0.5l0,0.2c0,0.4-0.1,0.9-0.4,1.1L0.1-0.1L0,0"/>
							</g>
							<g id="g5012" transform="translate(87.016998,575.47951)">
								<path id="path5014" inkscape:connector-curvature="0" class="st3" d="M0,0c-0.2,0-0.3,0-0.5,0.2c-0.2,0.1-0.3,0.1-0.4,0.1
									c-0.2,0-0.3-0.1-0.4-0.2L-1.3,0L-1-0.1l0.2-0.2c0.1,0,0.1-0.1,0.2-0.1C-0.5-0.4-0.3-0.3,0,0"/>
							</g>
							<g id="g5016" transform="translate(91.063095,573.567)">
								<path id="path5018" inkscape:connector-curvature="0" class="st3" d="M0,0c0.1,0.1,0.1,0.2,0.2,0.3c0.3,0.3,0.4,0.4,0.4,0.6
									V1v0.1c0,0.1,0,0.2,0.1,0.2c0,0,0.1,0,0.1,0l0.1-0.1c0,0,0,0,0.1,0c0.1,0,0.1,0.1,0.3,0.3c0.1,0.1,0.1,0.1,0.1,0.2
									c0,0,0,0.1,0,0.1c0,0,0,0.1-0.1,0.2c0,0.1,0,0.1,0,0.2c0,0.1,0,0.1,0.1,0.1c0,0,0.1,0,0.1,0L1.4,2c0,0,0,0,0.1,0
									c0,0,0.1,0,0.1,0.1l0.1,0.2c0,0,0,0.1,0,0.1c0,0,0,0.1-0.1,0.1L1.5,2.4C1.3,2.5,1.1,2.8,1.1,3.1c0,0,0,0.1,0,0.1l0.1,0.2
									c0,0.1,0,0.1,0,0.2c0,0.1,0,0.2-0.1,0.3C1.1,4,1.1,4.1,1,4.1C1,4.3,0.9,4.3,0.9,4.3c0,0-0.1,0-0.1-0.1L0.7,4.2L0.5,4L0.4,4
									c-0.1,0-0.2-0.2-0.2-0.4c0-0.2,0.1-0.3,0.4-1C0.7,2.4,0.8,2.2,0.8,2c0-0.4-0.4-0.8-1.1-0.9c-0.9-0.2-1-0.3-1.1-0.9
									C-1.3,0.3-1.3,0.3-1,0.3l0.2,0h0c0.1,0,0.2,0,0.2,0.1c0.1,0.1,0.2,0.2,0.3,0.3l0.2,0.1l0.1,0.1l0,0c0,0,0.1,0,0.1,0
									c0,0,0-0.1-0.1-0.2C0,0.6-0.1,0.4-0.1,0.3C-0.1,0.2-0.1,0.1,0,0"/>
							</g>
							<g id="g5020" transform="translate(89.738907,575.1962)">
								<path id="path5022" inkscape:connector-curvature="0" class="st3" d="M0,0c0.1-0.1,0.2-0.2,0.3-0.3c0.1-0.1,0.1-0.1,0.2-0.1
									c0,0,0.1,0,0.2,0l0.1,0C1-0.4,1-0.3,1-0.3c0,0,0,0.1,0,0.1L0.8-0.1L0.7,0C0.7,0.1,0.5,0.1,0.4,0.1C0.3,0.1,0.2,0.1,0,0"/>
							</g>
							<g id="g5024" transform="translate(93.143494,574.6282)">
								<path id="path5026" inkscape:connector-curvature="0" class="st3" d="M0,0L0,0l0.2,0l0.1,0l0.1,0c0.1,0,0.2,0,0.2,0
									c0.1,0,0.1,0.1,0.2,0.2c0,0,0,0.1,0,0.1c0,0.1-0.1,0.1-0.2,0.1C0.3,0.5,0.1,0.4,0,0"/>
							</g>
							<g id="g5028" transform="translate(74.469894,552.4234)">
								<path id="path5030" inkscape:connector-curvature="0" class="st3" d="M0,0l0.1,0.1l0.1,0.2c0.1,0.1,0.2,0.3,0.2,0.5
									c0,0.1,0,0.2-0.1,0.3c0,0.1,0,0.2,0,0.2c0,0.1,0.1,0.1,0.1,0.1c0,0,0.1,0,0.1-0.1l0.2-0.2c0.1-0.1,0.1-0.1,0.3-0.2l0,0.1
									l0,0.2c0,0.3-0.1,0.5-0.2,0.7C0.6,2.2,0.6,2.3,0.6,2.3c0,0,0,0.1,0.1,0.1c0,0,0,0,0,0c0.1-0.1,0.2-0.1,0.2-0.1
									c0.1,0,0.1,0.1,0.1,0.3c0,0.2-0.1,0.4-0.2,0.6C0.7,3.2,0.6,3.3,0.6,3.3c0,0,0,0,0,0.1c0,0,0,0.1,0.1,0.1c0,0,0.1,0,0.1-0.1
									c0,0,0.1,0,0.1,0C1,3.3,1,3.5,1,3.8l0,0.1l0,0.2c0,0.2,0,0.3-0.1,0.3H0.8C0.3,4.4,0,4.7-0.1,5.5c-0.1,0.6-0.3,1.1-0.6,1.2
									C-0.9,6.8-1,6.8-1,6.9c0,0,0,0.1,0.1,0.1c0,0,0.1,0,0.2-0.1c0.4-0.2,0.8-0.3,1.1-0.3c0.5,0,0.9,0.4,0.9,0.8
									c0,0.4-0.2,0.7-0.5,1C0.7,8.6,0.7,8.6,0.6,8.6l0,0l-0.1,0l0-0.2l0-0.1l0,0c0,0,0,0-0.1,0c0,0-0.1,0-0.1,0L0.3,8.6
									C0.1,8.8-0.2,9-0.5,9c-0.1,0-0.1,0-0.1-0.1c0,0,0-0.1,0.1-0.1c0.1-0.1,0.1-0.1,0.1-0.2l0,0c0,0,0,0,0,0l0,0
									c-0.1,0-0.1,0-0.3,0.3C-1,9-1.4,9.2-1.6,9.2c0,0-0.1,0-0.1,0c0,0,0,0,0,0c0,0,0-0.1,0.1-0.1C-1.6,9-1.5,8.9-1.5,8.9
									c0,0,0,0-0.1,0c-0.1,0-0.2,0.1-0.4,0.3c-0.4,0.3-0.6,0.6-0.6,0.9c0,0.4,0.3,0.7,0.7,0.7c0.2,0,0.5-0.1,0.7-0.3l0.5-0.4
									c0.2-0.2,0.5-0.3,0.8-0.3c0.1,0,0.1,0,0.2,0c0,0,0.1,0.1,0.1,0.1c0,0,0,0-0.1,0c-0.2,0-0.3,0.1-0.4,0.2l-0.5,0.4
									c-0.2,0.1-0.3,0.2-0.4,0.3c-0.3,0.1-0.3,0.2-0.3,0.2c0,0,0,0,0.1,0c0,0,0.1,0,0.1,0L-1,11c0.1,0,0.2-0.1,0.4-0.3
									c0.6-0.4,0.8-0.5,1.2-0.5c0.3,0,0.5,0.2,0.5,0.5c0,0.1,0,0.1,0,0.2l-0.1,0.1c0,0-0.1,0.1-0.1,0.1l0,0l0-0.2c0,0,0,0,0-0.1
									c0,0,0-0.1-0.1-0.1c-0.1-0.1-0.1-0.1-0.2-0.1c-0.2,0-0.3,0.1-0.8,0.4c-0.5,0.3-0.9,0.5-1.3,0.5c-0.8,0-1.4-0.6-1.4-1.4
									c0-1.1,0.6-1.5,2.7-2C0.6,8,0.9,7.8,0.9,7.4c0-0.3-0.3-0.5-0.7-0.5c-0.1,0-0.2,0-0.3,0c-0.1,0-0.4,0.1-1.1,0.3
									c-0.5,0.1-1,0.2-1.4,0.2c-0.8,0-1.3-0.2-1.7-0.7c0-0.1-0.1-0.1-0.1-0.1c0,0-0.1,0-0.1,0l-0.1,0.1c-0.1,0.1-0.3,0.1-0.4,0.1
									c-0.1,0-0.2,0-0.2-0.1c-0.1,0-0.1-0.1-0.1-0.1c-0.1,0-0.2,0.1-0.2,0.3c-0.1,0.2-0.2,0.5-0.2,0.7c0,0.1,0,0.2,0.1,0.2
									c0,0,0.1,0,0.1-0.1l0.1-0.3c0-0.2,0.1-0.3,0.2-0.3c0,0,0.1,0,0.2,0.1C-5,7.4-5,7.5-5,7.5c0.1,0.2,0.1,0.2,0.1,0.2
									c0.1,0,0.1,0,0.1-0.2c0,0,0-0.1,0.1-0.2c0-0.1,0.1-0.1,0.1-0.2c0,0,0.1-0.1,0.1-0.1c0.1,0,0.2,0.2,0.2,0.3l0,0l0,0.2
									c0,0.1,0,0.1,0.1,0.1c0,0,0,0,0.1-0.1c0-0.1,0.1-0.1,0.2-0.1c0.1,0,0.1-0.1,0.2-0.1c0,0,0.1,0,0.1,0.1c0,0,0,0.1,0,0.1
									c0,0,0,0.1-0.1,0.2C-3.9,7.9-3.9,8-4,8.2c0,0.1-0.1,0.1-0.1,0.1c0,0,0,0-0.1,0l-0.1-0.1l-0.1,0l0,0c0,0-0.1,0-0.1,0.1
									s0.1,0.2,0.2,0.2c0.1,0.1,0.1,0.2,0.1,0.3c0,0.2,0,0.3,0.1,0.3l0,0.4c0,0.2,0.1,0.5,0.2,0.7c0,0,0,0.1,0,0.1
									c0,0,0.1-0.1,0.1-0.2l0-0.1l0-0.1c0-0.1,0-0.2,0.1-0.2c0,0,0.1,0.1,0.1,0.2l0.1,0.2c0,0.1,0,0.1,0,0.2
									c0,0.2-0.1,0.4-0.3,0.4l-0.1,0c0,0-0.1,0-0.1,0C-4,10.7-4,10.8-4,10.9l0,0.2l0,0.2l0,0.2l0,0.1l-0.1-0.1l-0.1-0.1l-0.2-0.1
									l-0.1-0.1c0,0-0.1,0-0.1,0c-0.1,0-0.1,0-0.1,0.2l0,0c0,0.1-0.1,0.2-0.3,0.5c0,0,0,0-0.1,0.1l0-0.1l-0.1-0.2l-0.1-0.3l0-0.2
									c0-0.1,0-0.1,0-0.1c0,0-0.1,0-0.1,0.1c-0.2,0.2-0.2,0.2-0.5,0.3l0-0.1c0-0.1-0.1-0.2-0.1-0.2l0-0.2l0-0.1l0-0.1
									c0-0.1,0-0.1-0.1-0.1l0,0c0,0,0,0-0.1,0.1c0,0-0.1,0-0.1,0c-0.2,0-0.3-0.1-0.3-0.3c0-0.1,0-0.2,0.2-0.5
									c0.1-0.1,0.2-0.2,0.2-0.2c0,0,0,0.1,0,0.1l0,0.1c0,0.1,0,0.1,0,0.2c0,0.1,0,0.1,0,0.1c0.1,0,0.2-0.3,0.2-0.7l0-0.4
									c0-0.1,0.1-0.3,0.1-0.4c0.1-0.2,0.2-0.3,0.3-0.4c0.1-0.1,0.2-0.1,0.2-0.2c0,0,0-0.1-0.1-0.1c0,0-0.1,0-0.2,0.1l-0.1,0
									c-0.2,0-0.3-0.1-0.3-0.5c0-0.4,0.3-1.1,0.6-1.3l0.5-0.4c0.2-0.2,0.4-0.5,0.4-0.8c0-0.3-0.3-0.6-0.9-0.8l-0.3-0.1
									C-5.9,4.3-6,4.1-6.1,3.6c0.1,0,0.2,0.1,0.3,0.1l0,0l0.2,0c0.1,0,0.2,0.1,0.2,0.2V4c0,0,0,0.1,0.1,0.1c0.1,0,0.1,0.1,0.1,0.1
									l0.1,0.1c0,0,0,0,0.1,0c0,0,0.1,0,0.1-0.1c0,0,0-0.1,0-0.1C-5,4-5,3.9-5,3.7c0-0.3,0-0.4,0.2-0.6c0,0.1,0,0.1,0,0.1
									c0,0.1,0.1,0.1,0.2,0.3c0.2,0.2,0.3,0.5,0.3,0.6l0,0l0,0.2c0,0,0,0.1,0.1,0.1c0,0,0,0,0.1,0c0,0,0.1,0,0.1-0.1
									c0-0.1,0.1-0.1,0.1-0.1c0,0,0.1,0.1,0.2,0.2c0,0.1,0.1,0.2,0.1,0.2c0,0,0,0.1,0,0.1c0,0.1,0,0.1,0,0.1c0,0,0,0,0,0.1
									c0,0,0,0,0.1,0c0,0,0,0,0.1,0l0.1-0.1c0,0,0.1,0,0.1,0c0,0,0.1,0,0.1,0.1c0.1,0.1,0.1,0.3,0.1,0.3c0,0,0,0-0.1,0.1
									C-3.6,5.7-3.7,6-3.7,6.2c0,0,0,0.1,0,0.2l0.1,0.3c0.1,0.1,0.1,0.2,0.1,0.2l0,0c0,0,0.1,0,0.1-0.1c0,0,0-0.1,0-0.1
									c0-0.1,0-0.2,0-0.2c0-0.1,0-0.1,0.1-0.1c0.1,0,0.1,0,0.2,0c0.3,0.1,0.6,0.2,0.7,0.2c0.1,0,0.2,0,0.4-0.1c0,0,0.1,0,0.1,0
									c0,0,0,0,0.1,0c0,0,0,0,0,0.1c0,0,0,0.1-0.1,0.1C-2,6.7-2.1,6.7-2.1,6.8c0,0,0,0.1,0.1,0.1c0.2,0,0.4-0.5,0.7-1.3
									c0.2-0.7,0.2-0.7,0.9-1.1c0.5-0.3,0.7-0.6,0.7-1.1c0-0.5-0.1-1.1-0.4-1.9C-0.2,1.2-0.3,1-0.3,0.9c0-0.1,0-0.2,0.1-0.5
									c0-0.1,0.1-0.2,0.1-0.2C-0.1,0.1,0,0.1,0,0"/>
							</g>
							<g id="g5032" transform="translate(72.031693,553.8945)">
								<path id="path5034" inkscape:connector-curvature="0" class="st3" d="M0,0c0.1,0.1,0.1,0.2,0.2,0.4c0.2,0.3,0.2,0.4,0.2,0.5
									V1c0,0.2,0,0.2,0.1,0.2c0,0,0,0,0.1,0l0.1-0.1c0,0,0,0,0.1,0c0,0,0.1,0,0.1,0.1c0.1,0.1,0.1,0.3,0.1,0.4l0,0.1l0,0.1
									c0,0.1,0,0.1,0.1,0.1c0,0,0.1,0,0.1-0.1c0-0.1,0.1-0.1,0.1-0.1c0,0,0.1,0,0.1,0.1l0.1,0.1L1.4,2l0,0c0,0,0,0.1-0.1,0.1
									C1.2,2.3,1.1,2.5,1.1,2.9c0,0.3,0,0.5-0.1,0.6c0,0-0.1,0.2-0.2,0.5c0,0.1-0.1,0.2-0.1,0.4c0,0.1-0.1,0.1-0.1,0.1
									c-0.3,0-0.5-0.2-0.5-0.6c0-0.2,0.1-0.5,0.2-0.9c0.2-0.5,0.3-0.7,0.3-0.9c0-0.4-0.2-0.6-0.7-0.7c-0.6-0.2-0.9-0.5-1-1.1
									c0,0,0.1,0,0.1,0c0.1,0,0.1,0,0.1,0.1l0.2,0c0.1,0,0.3,0.1,0.3,0.2l0,0.1c0,0,0,0.1,0.1,0.1l0.1,0l0.1,0l0,0l0-0.1
									c0,0,0-0.1,0-0.2C-0.2,0.3-0.1,0.2,0,0"/>
							</g>
							<g id="g5036" transform="translate(66.388504,563.6153)">
								<path id="path5038" inkscape:connector-curvature="0" class="st3" d="M0,0c0-0.1,0-0.1,0-0.1c0,0,0-0.1,0-0.3l0-0.2
									C0-0.8,0-1,0.1-1.2c0.1-0.2,0.1-0.2,0.1-0.2l0,0c0,0,0-0.1,0-0.1c0,0-0.1,0-0.1,0.1c-0.1,0.1-0.3,0.2-0.4,0.2
									c0,0-0.1,0-0.2,0l0.1-0.1l0.2-0.4l0.2-0.3l0.2-0.2c0,0,0,0,0.1-0.1c0,0,0-0.1,0-0.1c0,0,0,0,0,0l-0.2,0c0,0-0.1,0-0.1,0
									c0,0,0-0.1,0.1-0.3L0-3.2l0.2-0.2l0.2-0.1c0.1,0,0.1-0.1,0.1-0.1c0,0,0-0.1,0-0.1l-0.1,0c0,0-0.1,0-0.1-0.1
									c0-0.1,0.1-0.2,0.2-0.4C0.7-4.4,0.8-4.4,1-4.4h0.2c0.1,0,0.1,0,0.1-0.1c0,0,0-0.1-0.1-0.1C1-4.7,1-4.7,1-4.8
									c0,0,0-0.1,0.1-0.1L1.1-5c0.1-0.1,0.1-0.2,0.2-0.2c0,0,0.1,0,0.2,0.1c0.1,0.1,0.2,0.2,0.3,0.2c0.4,0.1,0.4,0.1,0.4,0.2
									c0,0,0,0.1,0,0.1C2.1-4.3,2-4.1,2-4C2-3.8,2-3.7,2-3.7c0,0-0.1,0-0.1-0.1C1.8-4,1.6-4,1.5-4c-0.4,0-0.8,0.6-1,1.3
									C0.4-2.5,0.4-2.3,0.4-2.2c0,0.2,0,0.4,0.1,0.6C0.6-1.2,0.6-1,0.6-1l0,0.1C0.6-0.6,0.4-0.3,0,0"/>
							</g>
							<g id="g5040" transform="translate(67.145401,562.15469)">
								<path id="path5042" inkscape:connector-curvature="0" class="st3" d="M0,0c-0.1-0.1-0.1-0.5-0.1-0.7c0-0.1,0-0.2,0.1-0.2
									c0,0,0,0,0.1,0.1l0.1,0.2c0,0,0,0.1,0.1,0.1c0,0.1,0.1,0.1,0.1,0.2C0.3-0.2,0.1-0.1,0,0"/>
							</g>
							<g id="g5044" transform="translate(68.301102,557.41521)">
								<path id="path5046" inkscape:connector-curvature="0" class="st3" d="M0,0C0,0,0,0,0,0c0.1-0.1,0.1-0.1,0.1-0.1
									c0.2-0.2,0.2-0.2,0.3-0.2c0.1,0,0.3,0.1,0.4,0.1c0,0,0.1,0.1,0.1,0.1c0,0,0,0.1-0.1,0.1L0.7,0C0.6,0.1,0.5,0.2,0.4,0.2
									C0.3,0.2,0.2,0.1,0,0"/>
							</g>
							<g id="g5048" transform="translate(70.739594,555.5132)">
								<path id="path5050" inkscape:connector-curvature="0" class="st3" d="M0,0c0.1,0,0.2-0.1,0.2-0.1c0.1-0.1,0.2-0.1,0.2-0.1
									c0,0,0.1,0,0.2,0c0,0,0.1,0,0.1,0l0.2,0.1l0.2,0.1C1.2,0,1.2,0,1.2,0c0,0,0,0-0.1,0.1c0,0-0.1,0-0.2,0.1
									C0.7,0.2,0.6,0.3,0.5,0.3C0.3,0.3,0.1,0.2,0,0"/>
							</g>
							<g id="g5052" transform="translate(73.397903,553.4007)">
								<path id="path5054" inkscape:connector-curvature="0" class="st3" d="M0,0c0.1,0.2,0.1,0.2,0.4,0.2c0.3,0,0.5,0.5,0.5,0.8
									c0,0,0,0.1,0,0.1c0,0,0,0-0.1,0C0.7,1,0.7,1,0.6,1L0.3,0.8C0.1,0.7-0.1,0.5-0.1,0.3C-0.1,0.2,0,0.1,0,0"/>
							</g>
							<g id="g5056" transform="translate(92.555206,555.9127)">
								<path id="path5058" inkscape:connector-curvature="0" class="st3" d="M0,0l0,0.1l0,0.1c0,0,0,0.1,0.1,0.2
									C0.3,0.6,0.4,0.8,0.4,1c0,0.1,0,0.1-0.1,0.2c0,0,0,0.1,0,0.1c0,0,0,0,0,0s0,0,0,0l0,0c0,0,0.1,0,0.1-0.1
									c0-0.1,0.1-0.1,0.1-0.1c0,0,0.1,0.1,0.1,0.2c0,0.1,0,0.1,0,0.1c0,0,0,0.2-0.1,0.3c0,0,0,0.1,0,0.1c0,0,0,0.1,0.1,0.1
									c0,0,0.1,0,0.1-0.1c0,0,0.1,0,0.1,0C0.9,1.8,1,1.9,1,2.1c0,0.1,0,0.1,0,0.2c0,0,0,0,0,0l0,0l-0.1,0c-0.2,0-0.5,0.1-0.6,0.3
									L0,2.9C-0.1,3-0.3,3.2-0.3,3.2l-0.2,0.2c0,0-0.1,0.1-0.1,0.1c0,0,0,0.1,0.1,0.1c0.1,0,0.2-0.1,0.5-0.2
									c0.3-0.1,0.8-0.2,1.1-0.2C1.6,3.1,2,3.5,2,4c0,0.3-0.1,0.5-0.4,0.9C1.6,5,1.5,5,1.4,5c0,0-0.1,0-0.1-0.1c0,0,0-0.1,0-0.1
									c0,0,0-0.1,0-0.1c0,0,0-0.1-0.1-0.1C1.3,4.7,1.2,4.8,1.2,5C1.1,5.2,1,5.3,0.7,5.5C0.5,5.6,0.4,5.6,0.3,5.6c0,0,0,0,0,0
									c0,0,0-0.1,0-0.1c0-0.1,0.1-0.1,0.1-0.2v0c0,0,0-0.1-0.1-0.1c-0.1,0-0.1,0-0.2,0.3C0,5.6-0.2,5.7-0.4,5.8
									c-0.1,0-0.1,0-0.2,0l0,0c0,0-0.1,0-0.1,0c0,0,0,0,0-0.1l0-0.1c0,0,0-0.1,0-0.1c-0.1,0-0.3,0.2-0.4,0.3
									c-0.2,0.2-0.3,0.4-0.3,0.6c0,0.4,0.4,0.8,0.8,0.8c0.1,0,0.2,0,0.3-0.1l0.4-0.2l0.4-0.3c0.2-0.2,0.6-0.3,0.8-0.3
									c0.1,0,0.1,0,0.3,0.1c0.1,0,0.2,0.1,0.2,0.1l0,0l0,0l-0.2,0C1.5,6.7,1.2,6.9,1,7L0.5,7.3L0.1,7.5c0,0-0.1,0-0.1,0.1
									c0,0,0,0,0,0c0,0,0,0,0.1,0l0.4-0.1c0.1,0,0.3-0.1,0.5-0.2C1.5,7,1.8,6.9,2,6.9c0.2,0,0.4,0.2,0.4,0.4c0,0.1,0,0.2,0,0.3
									c0,0,0,0.1-0.1,0.1c0,0,0,0-0.1,0c0,0,0,0,0-0.1l0-0.1l0-0.1c0-0.2-0.1-0.3-0.3-0.3C1.7,7.3,1.5,7.4,1,7.6
									C0.5,7.8,0.2,7.9-0.1,7.9c-0.8,0-1.5-0.6-1.5-1.4c0-0.6,0.4-1.1,1.3-1.5l0.9-0.4c0.7-0.3,1-0.5,1-0.8c0-0.2-0.2-0.4-0.6-0.4
									c-0.2,0-0.3,0-0.7,0.2C-0.5,3.8-1.1,4-1.6,4c-0.8,0-1.3-0.2-1.8-0.7c-0.1-0.1-0.1-0.1-0.1-0.1c0,0-0.1,0-0.2,0.1
									c-0.1,0-0.2,0.1-0.2,0.1c-0.1,0-0.2-0.1-0.3-0.1L-4.2,3C-4.2,3-4.3,3-4.3,3c-0.1,0-0.2,0.1-0.3,0.3
									c-0.1,0.1-0.1,0.2-0.1,0.3c0,0.1,0,0.2,0,0.3l0,0.2l0,0.2c0,0.1,0,0.2,0,0.2c0,0,0,0,0.1,0c0.1,0,0.1-0.1,0.1-0.2l0-0.1l0,0
									c0-0.3,0.1-0.6,0.2-0.6c0.1,0,0.2,0.2,0.3,0.5c0,0.1,0,0.1,0.1,0.1c0,0,0.1-0.1,0.1-0.2c0-0.1,0.1-0.2,0.2-0.3
									c0-0.1,0.1-0.1,0.1-0.1c0.1,0,0.1,0.1,0.2,0.4c0,0.1,0.1,0.2,0.1,0.2c0,0,0,0,0,0c0,0,0,0,0.1-0.1C-3.1,4.1-3.1,4-3,4
									C-3,4-3,4-2.9,4c0,0,0.1,0,0.1,0c0,0,0.1,0.1,0.1,0.1c0,0,0,0-0.1,0.1C-2.9,4.3-2.9,4.4-3,4.5c0,0.1-0.1,0.2-0.1,0.2
									c0,0,0,0.1-0.1,0.1l0,0l-0.1,0c0,0-0.1,0-0.2-0.1l-0.1,0c0,0,0,0,0,0.1c0,0,0,0.1,0.1,0.1C-3.2,5.2-3.1,5.5-3,6
									c0,0.3,0.1,0.4,0.2,0.6c0,0,0.1,0.1,0.1,0.1c0,0,0.1,0,0.1-0.1c0,0,0-0.1,0-0.1c0,0,0-0.1,0-0.1l0,0l0-0.1l0.1,0l0.1,0.1
									c0.1,0.1,0.1,0.3,0.1,0.4c0,0.1,0,0.2-0.1,0.2c-0.1,0.1-0.1,0.1-0.2,0.1l-0.1,0l-0.1,0c-0.1,0-0.1,0-0.1,0.1l0,0.1l0,0.1
									l-0.1,0.3l-0.1,0.1l0,0.1L-3,7.9l-0.2-0.1c0,0-0.1-0.1-0.1-0.1c-0.1-0.2-0.2-0.2-0.2-0.2c0,0-0.1,0-0.1,0l0,0
									c0,0.1,0,0.2,0,0.2c0,0.2-0.1,0.5-0.3,0.6C-4.1,8.2-4.2,8-4.2,7.8V7.6c0,0,0-0.1,0-0.1h0c0,0-0.1,0-0.1,0.1l-0.1,0.2
									c0,0-0.1,0.1-0.2,0.1c0,0,0,0-0.1,0.1l0-0.1c-0.1-0.2-0.1-0.3-0.1-0.5c0-0.1,0-0.2,0-0.2c0,0,0,0-0.1,0
									c-0.2,0.1-0.2,0.1-0.2,0.1c-0.2,0-0.3-0.1-0.3-0.3c0-0.1,0-0.2,0.1-0.4c0.1-0.2,0.2-0.3,0.3-0.3c0,0,0,0,0,0.1v0l0,0.2
									l0,0.1l0,0c0,0,0,0.1,0,0.1C-5,6.8-4.9,6.5-4.8,6c0.1-0.5,0.2-0.8,0.4-1c0.1-0.1,0.1-0.1,0.1-0.1c0,0,0,0,0,0
									c0,0-0.1,0-0.1,0.1c0,0-0.1,0-0.1,0c-0.1,0-0.2-0.1-0.2-0.3L-5,4L-5,3.2C-5,3-5,2.8-5,2.6c0-0.2,0.1-0.4,0.1-0.5
									c0-0.6-0.4-1.1-1-1.3l-0.7-0.2C-7,0.4-7.2,0.1-7.3-0.4C-7.2-0.3-7.2-0.3-7-0.2l0.2,0c0.1,0,0.1,0,0.2,0.1
									c0,0,0.1,0.1,0.1,0.1l0.2,0.2c0.1,0.1,0.1,0.1,0.2,0.1c0,0,0,0,0-0.1c0,0,0-0.1-0.1-0.2C-6.2,0-6.3-0.1-6.3-0.2
									c0-0.1,0-0.2,0.2-0.4c0,0.1,0,0.1,0,0.1c0,0,0.1,0.1,0.2,0.2c0.1,0.2,0.3,0.4,0.3,0.5c0,0.2,0,0.2,0.1,0.2c0,0,0,0,0.1-0.1
									c0,0,0,0,0-0.1c0,0,0,0,0.1,0c0,0,0,0,0.1,0c0.1,0,0.1,0.1,0.2,0.1c0,0.1,0.1,0.1,0.1,0.2C-5,0.7-5,0.7-5,0.8l0,0.1
									C-5,0.9-5,1-5,1c0,0,0.1-0.1,0.1-0.1c0,0,0-0.1,0.1-0.1h0c0,0,0.1,0,0.1,0C-4.6,1-4.5,1.1-4.5,1.2l0,0.2l0,0.2l0,0
									c0,0,0,0.1,0.1,0.1c0,0,0.1-0.1,0.2-0.2c0-0.1,0.1-0.1,0.1-0.1c0.1,0,0.1,0,0.2,0.2l0.1,0.1c0,0,0,0.1,0,0.1
									c0,0,0,0.1,0,0.1L-4,2C-4,2-4,2-4,2.1C-4,2.2-4,2.4-3.9,2.6c0.1,0.1,0.1,0.2,0.1,0.3c0,0,0,0.1,0.1,0.1c0,0,0,0,0-0.1l0-0.1
									V2.7V2.6c0,0,0-0.1,0.1-0.1c0,0,0.1,0,0.1,0l0.3,0.1c0.1,0,0.1,0.1,0.2,0.1C-2.6,3-2.4,3-2.2,3c0.1,0,0.3,0,0.5-0.1
									c0,0,0.1,0,0.1,0c0,0,0.1,0,0.1,0.1c0,0,0,0.1,0,0.1c0,0,0,0.1,0,0.1c0,0.1-0.1,0.1-0.1,0.2c0,0,0,0,0,0c0,0,0.1,0,0.1-0.1
									c0,0,0.1-0.2,0.2-0.4C-1,2.5-0.8,2.2-0.6,2.2l0.5-0.1C0,2.1,0.1,2,0.1,1.8c0-0.3-0.2-0.6-0.4-0.8l-0.4-0.2
									C-0.9,0.7-1,0.5-1,0.3c0-0.1,0-0.4,0.1-0.5l0.1,0.1l0.2,0.1l0.2,0.2l0.1,0.2l0.1,0.2c0,0.1,0.1,0.2,0.1,0.2
									c0,0,0.1-0.1,0.1-0.2l0,0l0,0C-0.1,0.3-0.1,0.2,0,0"/>
							</g>
							<g id="g5060" transform="translate(86.344696,552.72839)">
								<path id="path5062" inkscape:connector-curvature="0" class="st3" d="M0,0c0.1,0.1,0.1,0.1,0.5,0.2C0.8,0.3,0.9,0.4,1,0.7
									C1,0.9,1.1,0.9,1.3,1c0.1,0,0.1,0.1,0.1,0.1c0,0,0,0,0.1,0c0,0,0,0,0,0c0,0,0-0.1-0.1-0.2c0,0,0-0.1,0-0.2
									c0-0.2,0-0.3,0.1-0.4c0.1,0.1,0.1,0.2,0.3,0.3C2,0.8,2,0.9,2.1,1.3c0,0.2,0,0.2,0.1,0.2c0,0,0,0,0,0l0.1-0.2c0,0,0,0,0.1,0
									s0.1,0,0.1,0.1l0.1,0.1C2.7,1.6,2.7,1.8,2.8,2c0,0.1,0,0.1,0.1,0.1c0,0,0,0,0.1-0.1L3,1.9c0,0,0-0.1,0.1-0.1
									c0,0,0,0,0.1,0.1C3.2,1.9,3.2,2,3.3,2c0,0.1,0.1,0.1,0.1,0.2v0.2c0,0,0,0.1,0,0.1c0,0,0,0,0,0c0,0,0,0,0.1-0.1l0-0.1
									c0,0,0.1-0.1,0.1-0.1c0.1,0,0.1,0,0.2,0.2c0,0,0,0.1,0.1,0.1C3.9,2.6,4,2.7,4,2.7c0,0,0,0,0,0.1C3.8,3,3.7,3.2,3.7,3.5
									c0,0.3,0.1,0.6,0.5,1.2C4.5,5,4.6,5.3,4.6,5.5c0,0.1,0,0.1-0.1,0.1c0,0-0.1,0-0.1,0c0,0-0.1,0-0.1,0c0,0,0,0-0.1,0L4.2,5.7
									L4.1,5.7c0,0-0.1,0.1-0.1,0.1c0,0,0,0-0.1,0l-0.1,0c-0.1,0-0.1,0-0.1-0.1l0-0.1l0,0c0-0.1-0.1-0.2-0.2-0.3L3.3,5
									C3.1,4.8,2.9,4.4,2.9,4.2c0-0.1,0-0.3,0.1-0.5c0.1-0.3,0.1-0.5,0.1-0.6c0-0.5-0.8-1.2-2.2-1.9C0.2,0.9,0,0.7,0,0.2L0,0"/>
							</g>
							<g id="g5064" transform="translate(85.651092,563.7518)">
								<path id="path5066" inkscape:connector-curvature="0" class="st3" d="M0,0v-0.1l0-0.2c0-0.1,0-0.1,0-0.2c0-0.1,0-0.2,0-0.2
									c0-0.2,0-0.3,0.1-0.5c0.1-0.1,0.1-0.3,0.1-0.4c0,0,0-0.1,0-0.1c0,0,0,0-0.1,0L0-1.4c-0.1,0.1-0.1,0.1-0.3,0.1l-0.2,0
									c0.1-0.2,0.1-0.2,0.1-0.4c0.1-0.3,0.1-0.4,0.3-0.5c0.2-0.2,0.2-0.2,0.2-0.3c0,0,0-0.1-0.1-0.1L0-2.6l0,0
									c-0.1,0-0.1-0.1-0.1-0.2c0-0.1,0-0.2,0.1-0.3C-0.1-3.1,0-3.2,0-3.2l0.1-0.1c0,0,0-0.1,0-0.1c0-0.1,0-0.1-0.1-0.1
									c0,0-0.1,0-0.1,0c0,0-0.1,0-0.1,0c0,0-0.1,0-0.1-0.1l0-0.2L-0.1-4C-0.1-4,0-4.1,0-4.2c0.1-0.1,0.1-0.1,0.2-0.1
									c0.1-0.1,0.2-0.1,0.2-0.1c0,0,0,0,0-0.1c0,0,0-0.1-0.1-0.1c0,0,0,0-0.1,0l-0.1,0C0-4.5,0-4.5,0-4.6c0-0.1,0-0.1,0-0.2l0-0.2
									c0-0.2,0.1-0.3,0.2-0.3c0,0,0,0,0.1,0C0.5-5,0.8-4.9,1-4.9c0.2,0,0.4,0,0.5-0.1c0,0,0.1,0,0.1,0c0,0,0,0,0,0.1l0,0.2l0,0.3
									l0,0.2V-4c0,0-0.1-0.1-0.1-0.1C1.5-4.2,1.3-4.3,1.2-4.3c-0.5,0-0.8,0.5-0.8,1.5c0,0.4,0.1,0.9,0.2,1.6c0,0.1,0,0.2,0,0.3
									C0.6-0.6,0.4-0.2,0,0"/>
							</g>
							<g id="g5068" transform="translate(86.365707,561.3983)">
								<path id="path5070" inkscape:connector-curvature="0" class="st3" d="M0,0L0,0l0.2,0.2c0.1,0.1,0.1,0.2,0.1,0.3
									c0,0,0,0.1,0,0.2c0,0.1-0.1,0.1-0.1,0.1c0,0-0.1-0.1-0.1-0.2l0-0.2l0-0.2l0-0.2V0"/>
							</g>
							<g id="g5072" transform="translate(85.440903,557.09979)">
								<path id="path5074" inkscape:connector-curvature="0" class="st3" d="M0,0c0.1,0,0.1-0.1,0.2-0.2c0.1-0.2,0.2-0.2,0.4-0.2
									c0.1,0,0.1,0,0.1,0l0.1,0l0.1,0c0,0,0.1,0,0.1,0.1c0,0-0.1,0.1-0.2,0.2C0.8,0,0.8,0,0.7,0.1c-0.1,0-0.2,0.1-0.2,0.1
									C0.3,0.1,0.1,0.1,0,0"/>
							</g>
							<g id="g5076" transform="translate(86.869995,554.0211)">
								<path id="path5078" inkscape:connector-curvature="0" class="st3" d="M0,0c0.2,0.1,0.3,0.1,0.5,0.2c0.2,0.1,0.3,0.2,0.3,0.2
									C1,0.5,1.1,0.6,1.1,0.6c0,0.1-0.1,0.1-0.3,0.1C0.3,0.7,0,0.5,0,0.1L0,0"/>
							</g>
							<g id="g5080" transform="translate(91.136597,556.69051)">
								<path id="path5082" inkscape:connector-curvature="0" class="st3" d="M0,0c0.1,0,0.2,0.1,0.3,0.1l0.2,0c0,0,0.1,0,0.1,0.1
									c0,0,0.1,0.1,0.1,0.1C0.9,0.4,1,0.4,1,0.5c0,0.1-0.1,0.1-0.3,0.1C0.4,0.5,0.2,0.4,0,0"/>
							</g>
							<g id="g5084" transform="translate(69.593796,582.0161)">
								<path id="path5086" inkscape:connector-curvature="0" class="st0" d="M0,0l-0.1,0.1l0,0.1c0,0.1,0,0.1,0.2,0.2
									c0.2,0.1,0.3,0.1,0.4,0.2l0.1,0.1l0,0c0,0,0.1,0,0.1-0.1c0-0.1-0.1-0.4-0.3-0.6C0.2-0.2,0.2-0.3,0.1-0.3
									C0.1-0.3,0-0.2,0-0.1L0,0"/>
							</g>
							<g id="g5088" transform="translate(68.973907,582.43649)">
								<path id="path5090" inkscape:connector-curvature="0" class="st0" d="M0,0l0.2-0.1c0,0,0.1-0.1,0.1-0.1l0-0.1
									c0-0.1,0-0.2,0-0.2c0-0.2-0.2-0.2-0.2-0.2c0,0,0,0-0.1,0.1l-0.2,0.3C-0.4-0.2-0.4,0-0.5,0.2l0,0c0,0.1,0,0.1,0.1,0.1
									c0,0,0.1,0,0.1-0.1L0,0"/>
							</g>
							<g id="g5092" transform="translate(69.604294,581.3432)">
								<path id="path5094" inkscape:connector-curvature="0" class="st0" d="M0,0l0.2,0.1l0.1,0c0.1,0,0.1,0,0.1-0.2
									c0-0.2-0.1-0.3-0.3-0.8C0-1.1,0-1.2-0.2-1.2c-0.2,0-0.3,0.1-0.4,0.4l-0.1,0.3C-0.8-0.2-0.8-0.1-0.8,0c0,0.1,0.1,0.1,0.2,0.1
									c0.1,0,0.1,0,0.2,0C-0.4,0-0.4,0-0.4,0l0.1,0l0.1,0L0,0"/>
							</g>
							<g id="g5096" transform="translate(89.237503,581.98129)">
								<path id="path5098" inkscape:connector-curvature="0" class="st0" d="M0,0l-0.1,0.2l0,0.1c0,0.1,0,0.1,0.2,0.2
									c0.1,0,0.3,0.1,0.3,0.2l0.1,0.1l0,0c0,0,0.1,0,0.1-0.1c0-0.1-0.1-0.3-0.3-0.6C0.2-0.1,0.1-0.3,0.1-0.3C0-0.3,0-0.2,0,0L0,0"
									/>
							</g>
							<g id="g5100" transform="translate(88.583206,582.43649)">
								<path id="path5102" inkscape:connector-curvature="0" class="st0" d="M0,0l0.2-0.1c0.1,0,0.1-0.1,0.1-0.1l0,0L0.2-0.5l0-0.2
									c0,0,0,0-0.1,0l0,0c0,0-0.2,0.1-0.2,0.1l-0.2,0.3c0,0-0.1,0.1-0.1,0.3c0,0.1,0,0.1,0,0.2l0,0c0,0.1,0,0.1,0.1,0.1
									c0,0,0.1,0,0.1-0.1L0,0"/>
							</g>
							<g id="g5104" transform="translate(89.223999,581.3432)">
								<path id="path5106" inkscape:connector-curvature="0" class="st0" d="M0,0l0.2,0.1l0.1,0c0.1,0,0.2-0.1,0.2-0.2
									c0-0.1-0.1-0.2-0.2-0.3L0.2-0.9C0.1-1.1,0-1.2-0.2-1.2c-0.2,0-0.3,0.1-0.4,0.4c-0.1,0.1-0.1,0.2-0.1,0.3
									C-0.8-0.3-0.8-0.1-0.8,0c0,0.1,0.1,0.2,0.2,0.2c0.1,0,0.1,0,0.1,0C-0.5,0-0.4,0-0.4,0l0.1,0l0.1,0L0,0"/>
							</g>
							<g id="g5108" transform="translate(68.711304,562.7961)">
								<path id="path5110" inkscape:connector-curvature="0" class="st0" d="M0,0l-0.1,0.2l0,0c0,0,0,0,0,0s0.1,0,0.1-0.1
									c0,0,0.1,0,0.1-0.1C0.5,0,0.6,0,0.6-0.1l0-0.2l0-0.2c0-0.1,0-0.1-0.1-0.1c0,0-0.2,0.1-0.2,0.2L0.1-0.3L0,0"/>
							</g>
							<g id="g5112" transform="translate(69.982697,562.53419)">
								<path id="path5114" inkscape:connector-curvature="0" class="st0" d="M0,0l-0.1-0.2c0,0-0.1-0.1-0.1-0.1l0,0
									c-0.1,0-0.1,0.1-0.1,0.3l0,0.2c0,0.1,0.1,0.1,0.2,0.1c0.1,0,0.2,0,0.2,0.1c0.1,0.1,0.2,0.1,0.2,0.1l0,0c0,0,0,0,0-0.1l0,0
									L0.2,0.3L0,0"/>
							</g>
							<g id="g5116" transform="translate(69.709503,561.81821)">
								<path id="path5118" inkscape:connector-curvature="0" class="st0" d="M0,0l0.2,0.1c0,0,0.1,0,0.1,0c0.1,0,0.1-0.1,0.1-0.2
									c0-0.1-0.1-0.3-0.2-0.5C0-0.8-0.1-1-0.2-1c-0.2,0-0.4,0.2-0.6,0.6c0,0.1-0.1,0.2-0.1,0.3c0,0.1,0.1,0.2,0.2,0.2
									c0,0,0.1,0,0.1,0L-0.5,0C-0.4,0-0.3,0-0.2,0C-0.1,0-0.1,0,0,0"/>
							</g>
							<g id="g5120" transform="translate(87.962799,563.09)">
								<path id="path5122" inkscape:connector-curvature="0" class="st0" d="M0,0l0.1-0.1c0.1-0.1,0.2-0.1,0.2-0.1
									c0.2-0.1,0.2-0.1,0.2-0.2c0,0,0-0.1,0-0.1c0,0,0-0.1,0-0.1c0-0.1-0.1-0.2-0.2-0.2c-0.1,0-0.1,0.1-0.3,0.3C0.1-0.4,0-0.2,0,0
									L0,0C-0.1,0-0.1,0,0,0L0,0"/>
							</g>
							<g id="g5124" transform="translate(89.381393,562.7231)">
								<path id="path5126" inkscape:connector-curvature="0" class="st0" d="M0,0l-0.2-0.2c-0.1-0.1-0.1-0.2-0.1-0.2c0,0,0,0-0.1,0
									l0,0c-0.1,0-0.1,0-0.1,0.1l0,0.2l0,0.2v0c0,0.1,0,0.1,0.1,0.1l0.2,0.1L0,0.3c0.1,0,0.1,0,0.1,0c0,0,0.1,0,0.1-0.1
									c0,0,0,0,0-0.1L0,0"/>
							</g>
							<g id="g5128" transform="translate(88.320206,562.0083)">
								<path id="path5130" inkscape:connector-curvature="0" class="st0" d="M0,0l0.2-0.1c0,0,0.1,0,0.1,0c0.1,0,0.2,0,0.2,0.1
									L0.7,0c0,0,0.1,0,0.1,0c0.1,0,0.2-0.1,0.2-0.2c0-0.2-0.1-0.3-0.3-0.5L0.5-1C0.4-1.1,0.4-1.2,0.3-1.2c-0.1,0-0.2,0.1-0.4,0.4
									c-0.1,0.3-0.2,0.4-0.2,0.6C-0.3-0.1-0.2,0-0.1,0C-0.1,0,0,0,0,0"/>
							</g>
							<g id="g5132" transform="translate(69.373398,581.0388)">
								<path id="path5134" inkscape:connector-curvature="0" class="st3" d="M0,0h-0.1c0,0,0,0-0.1,0l0-0.1l0.1-0.3l0-0.2
									C-0.1-0.7,0-0.7,0-0.7c0.1,0,0.2,0.1,0.2,0.2l0,0.2c0,0.2,0,0.2,0,0.2c0,0,0,0,0,0.1c0,0,0,0-0.1,0l0,0L0,0"/>
							</g>
							<g id="g5136" transform="translate(88.9823,581.0388)">
								<path id="path5138" inkscape:connector-curvature="0" class="st3" d="M0,0h-0.1c0,0,0,0-0.1,0c0,0,0,0,0-0.1l0.1-0.3l0-0.2
									c0-0.1,0-0.2,0.1-0.2c0.1,0,0.2,0.1,0.2,0.2l0,0.2c0,0.2,0,0.2,0,0.2c0,0,0,0,0,0.1c0,0,0,0-0.1,0l0,0L0,0"/>
							</g>
							<g id="g5140" transform="translate(69.467804,561.5663)">
								<path id="path5142" inkscape:connector-curvature="0" class="st3" d="M0,0l-0.1,0l0,0c-0.1,0-0.1,0-0.1-0.1
									c0-0.1,0.1-0.3,0.2-0.5c0,0,0.1,0,0.1,0c0.1,0,0.1,0.1,0.2,0.3l0,0.2l0,0C0.2,0,0.2,0,0.2,0l0,0L0,0"/>
							</g>
							<g id="g5144" transform="translate(88.456894,561.42931)">
								<path id="path5146" inkscape:connector-curvature="0" class="st3" d="M0,0l0-0.2c0-0.1,0.1-0.2,0.2-0.2
									c0.1,0,0.2,0.1,0.2,0.4c0,0.1,0,0.1,0,0.1c0,0.1,0,0.1-0.1,0.1l-0.1,0H0.1l0,0C0,0.2,0,0.2,0,0L0,0"/>
							</g>
							<g id="g5148" transform="translate(76.6241,571.6124)">
								<path id="path5150" inkscape:connector-curvature="0" class="st0" d="M0,0h1.1c0.1,0.3,0.3,0.4,0.6,0.4
									c0.3,0,0.4-0.1,0.6-0.4h0.9c0.1,0.2,0.3,0.4,0.6,0.4C4,0.4,4.3,0.2,4.3,0h0.8c0.1,0.2,0.3,0.4,0.6,0.4
									c0.2,0,0.4-0.1,0.6-0.3l0-0.1h1.2v-5.4h-1v-2.1H5.3v2.1H2.2v-2.1H1v2.1l-1,0V0"/>
							</g>
							<path id="path5152" inkscape:connector-curvature="0" class="st2" d="M77.1,566.6h6.7v4.6h-6.7V566.6z"/>
							<g id="g5154" transform="translate(77.757996,570.1181)">
								<path id="path5156" inkscape:connector-curvature="0" class="st3" d="M0,0c-0.2,0-0.3-0.1-0.3-0.3S-0.2-0.6,0-0.6
									c0.2,0,0.3,0.1,0.3,0.3S0.2,0,0,0"/>
							</g>
							<g id="g5158" transform="translate(77.757996,570.1181)">
								<path id="path5160" inkscape:connector-curvature="0" class="st4" d="M0,0c-0.2,0-0.3-0.1-0.3-0.3S-0.2-0.6,0-0.6
									c0.2,0,0.3,0.1,0.3,0.3S0.2,0,0,0z"/>
							</g>
							<g id="g5162" transform="translate(83.004105,570.1181)">
								<path id="path5164" inkscape:connector-curvature="0" class="st3" d="M0,0c-0.2,0-0.3-0.1-0.3-0.3S-0.2-0.6,0-0.6
									c0.2,0,0.3,0.1,0.3,0.3S0.2,0,0,0"/>
							</g>
							<g id="g5166" transform="translate(83.004105,570.1181)">
								<path id="path5168" inkscape:connector-curvature="0" class="st4" d="M0,0c-0.2,0-0.3-0.1-0.3-0.3S-0.2-0.6,0-0.6
									c0.2,0,0.3,0.1,0.3,0.3S0.2,0,0,0z"/>
							</g>
							<g id="g5170" transform="translate(77.757996,567.6277)">
								<path id="path5172" inkscape:connector-curvature="0" class="st3" d="M0,0c-0.2,0-0.3-0.1-0.3-0.3c0-0.2,0.1-0.3,0.3-0.3
									c0.2,0,0.3,0.1,0.3,0.3C0.3-0.1,0.2,0,0,0"/>
							</g>
							<g id="g5174" transform="translate(77.757996,567.6277)">
								<path id="path5176" inkscape:connector-curvature="0" class="st4" d="M0,0c-0.2,0-0.3-0.1-0.3-0.3c0-0.2,0.1-0.3,0.3-0.3
									c0.2,0,0.3,0.1,0.3,0.3C0.3-0.1,0.2,0,0,0z"/>
							</g>
							<g id="g5178" transform="translate(83.004105,567.6277)">
								<path id="path5180" inkscape:connector-curvature="0" class="st3" d="M0,0c-0.2,0-0.3-0.1-0.3-0.3c0-0.2,0.1-0.3,0.3-0.3
									c0.2,0,0.3,0.1,0.3,0.3C0.3-0.1,0.2,0,0,0"/>
							</g>
							<g id="g5182" transform="translate(83.004105,567.6277)">
								<path id="path5184" inkscape:connector-curvature="0" class="st4" d="M0,0c-0.2,0-0.3-0.1-0.3-0.3c0-0.2,0.1-0.3,0.3-0.3
									c0.2,0,0.3,0.1,0.3,0.3C0.3-0.1,0.2,0,0,0z"/>
							</g>
							<g id="g5186" transform="translate(78.754395,568.59171)">
								<path id="path5188" inkscape:connector-curvature="0" class="st3" d="M0,0c0.4-0.5,1-0.8,1.6-0.8c0.6,0,1.1,0.2,1.6,0.8
									c-0.5,0.5-1,0.7-1.6,0.7C1,0.7,0.4,0.5,0,0"/>
							</g>
							<g id="g5190" transform="translate(79.072296,568.59171)">
								<path id="path5192" inkscape:connector-curvature="0" class="st0" d="M0,0c0.4,0.3,0.8,0.5,1.3,0.5c0.5,0,0.8-0.1,1.3-0.5
									C2.2-0.4,1.8-0.6,1.3-0.6C0.8-0.6,0.4-0.4,0,0"/>
							</g>
							<g id="g5194" transform="translate(79.6129,568.6978)">
								<path id="path5196" inkscape:connector-curvature="0" class="st3" d="M0,0c0.3-0.2,0.5-0.2,0.7-0.2C1-0.2,1.3-0.2,1.5,0
									C1.2,0.1,1,0.2,0.7,0.2C0.5,0.2,0.2,0.1,0,0"/>
							</g>
							<path id="path5198" inkscape:connector-curvature="0" class="st0" d="M77,570.7h6.9v0.2H77V570.7z"/>
							<path id="path5200" inkscape:connector-curvature="0" class="st5" d="M77,570.7h6.9v0.2H77V570.7z"/>
							<g id="g5202" transform="translate(78.023193,571.2307)">
								<path id="path5204" inkscape:connector-curvature="0" class="st3" d="M0,0v-0.5v-0.1c0-0.2,0.1-0.3,0.3-0.3
									c0.2,0,0.3,0.1,0.3,0.3v0.1V0c0,0.2-0.1,0.4-0.3,0.4c0,0-0.1,0-0.1,0c0,0-0.1,0-0.1,0c0,0,0,0-0.1-0.1c0-0.1,0-0.1,0-0.1V0"
									/>
							</g>
							<g id="g5206" transform="translate(80.089294,570.6904)">
								<path id="path5208" inkscape:connector-curvature="0" class="st3" d="M0,0v-0.1c0-0.2,0.1-0.3,0.3-0.3
									c0.2,0,0.3,0.1,0.3,0.3V0v0.5c0,0.2-0.1,0.4-0.3,0.4C0.1,0.9,0,0.8,0,0.5V0"/>
							</g>
							<g id="g5210" transform="translate(82.092499,571.2307)">
								<path id="path5212" inkscape:connector-curvature="0" class="st3" d="M0,0v-0.5v-0.1c0-0.2,0.1-0.3,0.3-0.3
									c0.2,0,0.3,0.1,0.3,0.3v0.1V0c0,0.2-0.1,0.4-0.3,0.4c0,0-0.1,0-0.1,0c0,0-0.1,0-0.1,0c0,0,0,0-0.1-0.1c0-0.1,0-0.1,0-0.1V0"
									/>
							</g>
							<path id="path5214" inkscape:connector-curvature="0" class="st3" d="M77.9,564.9h0.6v0.8h-0.6V564.9z"/>
							<path id="path5216" inkscape:connector-curvature="0" class="st3" d="M77.9,564.4h0.6v0.3h-0.6V564.4z"/>
							<path id="path5218" inkscape:connector-curvature="0" class="st3" d="M82.1,564.9h0.6v0.8h-0.6V564.9z"/>
							<path id="path5220" inkscape:connector-curvature="0" class="st3" d="M82.1,564.4h0.6v0.3h-0.6V564.4z"/>
							<g id="g5222" transform="translate(116.4682,585.2274)">
								<path id="path5224" inkscape:connector-curvature="0" class="st1" d="M0,0c0-0.1,0-0.4,0-0.5c-0.1,0-0.3,0-0.3,0
									c-0.5,0-1.3,0-1.3-1.5v-6c0-3.7-1.6-5.5-4.9-5.5c-3.7,0-5.4,1.5-5.4,4.7v6.8c0,1.5-0.8,1.5-1.5,1.5c0,0-0.1,0-0.1,0
									c0,0.1,0,0.4,0,0.5c0.1,0,5.4,0,5.6,0c0-0.1,0-0.4,0-0.5c-0.1,0-0.1,0-0.1,0c-0.7,0-1.5,0-1.5-1.5v-6.5
									c0-2.8,1.2-4.2,3.6-4.2c2.3,0,3.6,1.5,3.6,4.2v6.4c0,1.5-0.8,1.5-1.4,1.5c0,0-0.2,0-0.3,0c0,0.1,0,0.4,0,0.5
									C-4.1,0-0.1,0,0,0"/>
							</g>
							<g id="g5226" transform="translate(122.4687,572.58591)">
								<path id="path5228" inkscape:connector-curvature="0" class="st1" d="M0,0v-0.5c0,0-4.5,0-4.7,0c0,0.1,0,0.4,0,0.5
									c0.1,0,0.2,0,0.2,0C-3,0-2.8,1.2-2.8,2.5v7.9c0,1.3-0.7,1.8-1.8,1.8h-0.2v0.5H-1l8-9.8v7.4c0,1.7-1.2,1.9-1.7,1.9
									c0,0-0.2,0-0.3,0c0,0.1,0,0.4,0,0.5c0.1,0,4.6,0,4.7,0c0-0.1,0-0.4,0-0.5c-0.1,0-0.2,0-0.2,0c-0.8,0-1.7-0.2-1.7-2.5V-0.5
									l-0.7,0l-9,10.9l0-7.9C-2,1.2-1.8,0-0.2,0H0"/>
							</g>
							<g id="g5230" transform="translate(147.6033,574.88789)">
								<path id="path5232" inkscape:connector-curvature="0" class="st1" d="M0,0l2.9,8.1c0.5,1.4,0.2,1.8-1,1.8H1.6v0.5h3.7V9.9
									H5.3c-0.4,0-0.9-0.1-1.2-1L-0.3-2.8h-0.8L-5.9,8.7c-0.4,1-0.8,1.1-1.6,1.1c0,0-0.1,0-0.1,0c0,0.1,0,0.4,0,0.5
									c0.1,0,5.3,0,5.4,0c0-0.1,0-0.4,0-0.5c-0.1,0-0.4,0-0.4,0c-0.9,0-1.1-0.6-0.8-1.3L0,0"/>
							</g>
							<g id="g5234" transform="translate(169.4993,584.6097)">
								<path id="path5236" inkscape:connector-curvature="0" class="st1" d="M0,0l0-5.8h1.1c2,0,2.9,0.9,2.9,3C4.1-1,3,0.1,1.3,0.1
									C0.9,0.1,0.3,0.1,0,0z M2,0.6c2.9,0,4.3-1.1,4.3-3.3c0-1.9-1.5-2.8-2.6-3.3L3.7-6l3.2-4.9C7.4-11.7,7.8-12,8.7-12
									c0-0.1,0-0.4,0-0.5c-0.1,0-3.4,0-3.4,0L1.5-6.3H0v-4.1C0-11.9,0.7-12,1.6-12c0,0,0.2,0,0.3,0c0-0.1,0-0.4,0-0.5
									c-0.1,0-5.6,0-5.7,0c0,0.1,0,0.4,0,0.5c0.1,0,0.3,0,0.3,0c0.6,0,1.4,0.3,1.4,1.1v9.5c0,1.5-0.9,1.5-1.4,1.5c0,0-0.2,0-0.3,0
									c0,0.1,0,0.4,0,0.5C-3.7,0.6,2,0.6,2,0.6"/>
							</g>
							<g id="g5238" transform="translate(185.1488,574.5956)">
								<path id="path5240" inkscape:connector-curvature="0" class="st1" d="M0,0c0,1.6-1.4,2.2-2.7,2.9c-1.5,0.8-3.2,1.6-3.2,4
									c0,2.3,1.8,3.9,4.3,3.9c1,0,2.2-0.2,2.7-0.3l0.2-2.6L0.9,7.8C0.7,9.2,0,10.2-1.5,10.2C-3,10.2-4,9.3-4,7.8
									C-4,6.3-2.6,5.7-1.4,5C0.2,4.2,2,3.4,2,1c0-2.7-2.4-3.9-4.6-3.9c-0.9,0-2.1,0.2-3.1,0.7l-0.3,2.8l0.5,0.1
									c0.4-1.9,1.6-3,3.1-3C-1-2.2,0-1.3,0,0"/>
							</g>
							<g id="g5242" transform="translate(194.5078,585.2274)">
								<path id="path5244" inkscape:connector-curvature="0" class="st1" d="M0,0c0-0.1,0-0.4,0-0.5c-0.1,0-0.2,0-0.2,0
									c-0.7,0-1.4-0.1-1.4-1.2v-9.8c0-1,0.7-1.2,1.4-1.2c0,0,0.1,0,0.2,0c0-0.1,0-0.4,0-0.5c-0.1,0-5.3,0-5.5,0c0,0.1,0,0.4,0,0.5
									c0.1,0,0.2,0,0.2,0c0.7,0,1.4,0.1,1.4,1.2v9.8c0,1-0.7,1.2-1.4,1.2c0,0-0.1,0-0.2,0c0,0.1,0,0.4,0,0.5C-5.3,0-0.1,0,0,0"/>
							</g>
							<g id="g5246" transform="translate(139.2106,585.2274)">
								<path id="path5248" inkscape:connector-curvature="0" class="st1" d="M0,0c0-0.1,0-0.4,0-0.5c-0.1,0-0.2,0-0.2,0
									c-0.7,0-1.4-0.1-1.4-1.2v-9.8c0-1,0.7-1.2,1.4-1.2c0,0,0.1,0,0.2,0c0-0.1,0-0.4,0-0.5c-0.1,0-5.3,0-5.5,0c0,0.1,0,0.4,0,0.5
									c0.1,0,0.2,0,0.2,0c0.7,0,1.4,0.1,1.4,1.2v9.8c0,1-0.7,1.2-1.4,1.2c0,0-0.1,0-0.2,0c0,0.1,0,0.4,0,0.5C-5.3,0-0.1,0,0,0"/>
							</g>
							<g id="g5250" transform="translate(248.4303,566.2786)">
								<path id="path5252" inkscape:connector-curvature="0" class="st1" d="M0,0l0-3.5c0,0-0.4-0.1-0.6-0.1
									C-0.6-2.1-1-0.9-3.4-0.9h-3.3v-6.4h2.8c1.4,0,1.8,0.8,1.9,2.1c0.1,0,0.4,0,0.6,0c0-0.2,0-5.4,0-5.4l-0.6,0
									c-0.1,1.3-0.4,2.3-1.9,2.3h-2.8V-14c0-1.6,1.4-1.6,2.9-1.6c2.7,0,3.9,0.2,4.7,2.9c0.1,0,0.6-0.1,0.6-0.1l-0.8-3.6
									c0,0-12,0-12.2,0c0,0.1,0,0.5,0,0.6c0.1,0,0.2,0,0.2,0c0.9,0,1.8,0.2,1.8,1.5v12.3c0,1.3-0.9,1.5-1.8,1.5c0,0-0.1,0-0.2,0
									c0,0.1,0,0.5,0,0.6C-11.3,0,0,0,0,0"/>
							</g>
							<g id="g5254" transform="translate(179.3232,565.5042)">
								<path id="path5256" inkscape:connector-curvature="0" class="st1" d="M0,0l0-7.3h1.4c2.6,0,3.7,1.1,3.7,3.8
									c0,2.2-1.4,3.6-3.5,3.6C1.1,0.1,0.5,0.1,0,0z M2.5,0.8C6.2,0.8,8-0.6,8-3.3c0-2.3-1.8-3.5-3.3-4.1l-0.1,0l4-6.1
									c0.6-1,1.2-1.4,2.3-1.4c0-0.1,0-0.5,0-0.6c-0.2,0-4.2,0-4.2,0L1.8-8H0v-5.1c0-1.9,0.8-2,2-2c0,0,0.2,0,0.3,0
									c0-0.1,0-0.5,0-0.6c-0.2,0-7,0-7.2,0c0,0.1,0,0.5,0,0.6c0.1,0,0.3,0,0.3,0c0.8,0,1.7,0.4,1.7,1.4v12c0,1.9-1.1,1.9-1.7,1.9
									c0,0-0.2,0-0.3,0c0,0.1,0,0.5,0,0.6C-4.7,0.8,2.5,0.8,2.5,0.8"/>
							</g>
							<g id="g5258" transform="translate(198.12939,566.282)">
								<path id="path5260" inkscape:connector-curvature="0" class="st1" d="M0,0c0-0.1,0-0.5,0-0.6c-0.1,0-0.2,0-0.2,0
									C-1.2-0.6-2-0.8-2-2.1v-12.3c0-1.3,0.9-1.5,1.8-1.5c0,0,0.1,0,0.2,0c0-0.1,0-0.5,0-0.6c-0.2,0-6.7,0-6.9,0
									c0,0.1,0,0.5,0,0.6c0.1,0,0.2,0,0.2,0c0.9,0,1.8,0.2,1.8,1.5v12.3c0,1.3-0.9,1.5-1.8,1.5c0,0-0.1,0-0.2,0c0,0.1,0,0.5,0,0.6
									C-6.7,0-0.2,0,0,0"/>
							</g>
							<g id="g5262" transform="translate(197.3595,585.2274)">
								<path id="path5264" inkscape:connector-curvature="0" class="st1" d="M0,0h8.7c0.4,0,1,0.1,1.1,0.7h0.4L9.9-2.7H9.4
									c0,0.8-0.1,1.9-1.4,1.9H5.3v-10.1c0-1.6,0.8-1.7,1.6-1.7c0,0,0.2,0,0.3,0c0-0.1,0-0.4,0-0.5c-0.1,0-5.8,0-6,0
									c0,0.1,0,0.4,0,0.5c0.1,0,0.3,0,0.3,0c1,0,1.6,0.1,1.6,1.7v10.2H0.4c-1.4,0-1.5-0.6-1.8-1.9h-0.5l0.3,3.4c0,0,0.3,0,0.4,0
									C-0.9,0.1-0.5,0,0,0"/>
							</g>
							<g id="g5266" transform="translate(220.9695,585.2274)">
								<path id="path5268" inkscape:connector-curvature="0" class="st1" d="M0,0v-0.5c-0.8,0-1.2-0.6-1.6-1l-3.3-5.1v-4.2
									c0-1.7,0.6-1.8,1.6-1.8c0,0,0.2,0,0.3,0c0-0.1,0-0.4,0-0.5c-0.1,0-5.8,0-6,0c0,0.1,0,0.4,0,0.5c0.1,0,0.3,0,0.3,0
									c1,0,1.6,0.3,1.6,1.6v4l-3.6,5.2c-0.6,0.8-1,1.3-1.8,1.3h-0.1V0h5.4v-0.5h-0.2c-1,0-1.1-0.6-0.7-1.2L-5.3-6l2.5,3.9
									c0.6,0.9,0.7,1.6-0.7,1.6h-0.2l0,0.5H0"/>
							</g>
							<g id="g5270" transform="translate(227.3857,579.2372)">
								<path id="path5272" inkscape:connector-curvature="0" class="st1" d="M0,0c0-3.2,1.4-6.7,4.6-6.7c2.9,0,4.3,2,4.3,6.1
									c0,3-1.6,6.2-4.6,6.2C0.3,5.6,0,1.3,0,0z M-2.4-0.7c0,3.9,3,6.9,6.7,6.9c4.1,0,7-2.7,7-6.5c0-4.2-2.9-7.2-6.9-7.2
									C0.4-7.4-2.4-4.6-2.4-0.7"/>
							</g>
							<g id="g5274" transform="translate(240.16991,572.108)">
								<path id="path5276" inkscape:connector-curvature="0" class="st1" d="M0,0c0,0.1,0,0.4,0,0.5c0.1,0,0.2,0,0.2,0
									c0.7,0,1.4,0.1,1.4,1.2v9.8c0,1-0.7,1.2-1.4,1.2c0,0-0.1,0-0.2,0c0,0.1,0,0.4,0,0.5h9.2l0-2.8c-0.1,0-0.3-0.1-0.4-0.1
									c-0.1,1.1-0.4,2.2-1.9,2.2h-3V7.3h2.6c1.1,0,1.2,0.9,1.3,1.5c0.1,0,0.3,0,0.4,0v0V4.6c-0.1,0-0.3,0-0.4,0
									c0,0.8-0.2,1.9-1.5,1.9H3.8V1.6c0-1.2,1-1.2,1.8-1.2c0,0,0.1,0,0.2,0c0-0.1,0-0.4,0-0.5L0,0"/>
							</g>
							<g id="g5278" transform="translate(103.967,558.0627)">
								<path id="path5280" inkscape:connector-curvature="0" class="st1" d="M0,0c0,2.4,1,4.9,2.7,6.4c1.6,1.4,3.7,2.2,6,2.2
									c2.1,0,3.9-0.4,5.6-1.2l0.2-3.8l-0.5-0.1c-0.6,2.2-1.7,4.2-5.1,4.2C5.2,7.8,3,4.9,3,0.4c0-4.1,1.8-7.9,6.2-7.9
									c2.4,0,4.2,0.9,5.5,2.6l0.4-0.8c-1.5-1.9-3.8-2.9-6.4-2.9C3.4-8.7,0-5.5,0,0"/>
							</g>
							<g id="g5282" transform="translate(139.45889,563.0966)">
								<path id="path5284" inkscape:connector-curvature="0" class="st1" d="M0,0c0,0-0.5-10.2-0.5-10.2c-0.1-2.3,0.6-2.4,2.1-2.5
									h0.1v-0.6h-5.5v0.6h0.2c1.9,0.1,2,1.1,2.1,2.6l0.6,10.4c0.1,1.4-0.7,2.2-2,2.2c0,0-0.1,0-0.2,0c0,0.1,0,0.5,0,0.6
									c0.2,0,4.5,0,4.7,0C1.6,3.1,7.1-9.3,7.1-9.3s5.2,12.3,5.3,12.5c0.1,0,4.6,0,4.6,0l0-0.6h-0.1c-1.9,0-2.2-0.6-2-2.9l0.6-10.9
									c0.1-1.3,0.8-1.4,2-1.4c0-0.1,0-0.5,0-0.6c-0.2,0-6.6,0-6.8,0c0,0.1,0,0.5,0,0.6c0,0,0,0,0,0c1.1,0.1,1.9,0.1,1.9,1.2l0,1.2
									c0,0-0.5,10.5-0.5,10.5S6.5-13.3,6.4-13.4c-0.1,0-0.4,0-0.5,0C5.9-13.3,0,0,0,0"/>
							</g>
							<g id="g5286" transform="translate(205.5531,565.49741)">
								<path id="path5288" inkscape:connector-curvature="0" class="st1" d="M0,0l0-12.9c0-1.7,0.7-2,2.5-2c4.2,0,6.1,3.6,6.1,7.1
									c0,5.5-2.3,7.9-6.9,7.9C1.3,0.1,0.4,0,0,0z M-4.8-15.7v0.6h0.2c0.9,0,1.8,0.2,1.8,1.5v12.3c0,1.3-0.9,1.5-1.8,1.5h-0.2v0.6
									l7.4,0c2.7,0,5-0.7,6.6-2.2c1.6-1.5,2.4-3.5,2.4-6c0-2.3-0.9-4.5-2.5-6.1c-1.6-1.6-3.9-2.1-6.1-2.1L-4.8-15.7"/>
							</g>
							<g id="g5290" transform="translate(231.1244,550.6694)">
								<path id="path5292" inkscape:connector-curvature="0" class="st1" d="M0,0v4c0,0.9-0.6,1.3-1.9,1.3h-0.2V6h6.3V5.4H4.1
									C3.2,5.4,2.7,4.9,2.7,4l0-4.5C1.2-0.9-0.8-1.3-3.1-1.3c-5.4,0-8.9,3.5-8.9,9c0,5.8,4.6,8.4,9,8.4c2,0,4-0.4,5.2-0.8l0.3-3.9
									l-0.6,0c-0.7,2.8-1.9,3.9-4.8,3.9c-3.8,0-6.1-2.8-6.1-7.4c0-4.2,2-8.3,6.3-8.3C-1.7-0.4-0.6-0.3,0,0"/>
							</g>
							<g id="g5294" transform="translate(167.5397,558.78371)">
								<path id="path5296" inkscape:connector-curvature="0" class="st1" d="M0,0c2.1-0.2,3.2-0.6,4.1-1.6c0.7-0.7,1.1-1.7,1.1-2.7
									C5.2-6.9,2.8-9-0.2-9h-8.1v0.6H-8C-7.2-8.4-6.3-8-6.3-7V5c0,1.9-1.1,1.9-1.7,1.9h-0.3v0.6l7.3,0c3.4,0,5.3-1.2,5.3-3.6
									C4.3,1.3,2,0.3,0,0 M-3.4,6.9V0.3h1.2c2.3,0,3.5,1.1,3.5,3.2c0,2.3-1.1,3.4-3.3,3.4H-3.4z M-3.4-0.4v-5.8
									c0-1.6,0.5-2.1,2.2-2.1c2,0,3.5,1.7,3.5,3.9c0,2.5-1.5,4-4.1,4L-3.4-0.4"/>
							</g>
							<g id="g5298" transform="translate(126.0643,562.9254)">
								<path id="path5300" inkscape:connector-curvature="0" class="st1" d="M0,0l2.3-6.4h-4.6L0,0z M0.3,3.4
									c0,0-5.2-14.2-5.2-14.2c-0.4-1-1.1-1.6-2.1-1.6h-0.1l0-0.6h5l0,0.6h-0.2c-1.2,0-2,0.4-1.5,1.9l1.2,3.3h5.2l1.3-3.6
									c0.4-1.1-0.1-1.7-1.4-1.7H2.4v-0.6h6.4l0,0.6H8.7c-0.8,0-1.4,0.4-1.8,1.6L1.5,3.4L0.3,3.4"/>
							</g>
							<g id="g5302" transform="translate(163.02831,585.2285)">
								<path id="path5304" inkscape:connector-curvature="0" class="st1" d="M0,0l0-2.8c0,0-0.3-0.1-0.4-0.1
									c-0.1,1.2-0.4,2.2-2.3,2.2h-2.6v-5.1h2.2c1.1,0,1.4,0.6,1.5,1.7c0.1,0,0.4,0,0.4,0c0-0.1,0-4.3,0-4.3l-0.4,0
									c-0.1,1-0.3,1.8-1.5,1.8h-2.2v-4.5c0-1.3,1.1-1.3,2.3-1.3c2.1,0,3.1,0.1,3.7,2.3c0.1,0,0.4-0.1,0.4-0.1l-0.6-2.9
									c0,0-9.6,0-9.7,0c0,0.1,0,0.4,0,0.5c0.1,0,0.2,0,0.2,0c0.7,0,1.4,0.1,1.4,1.2v9.8c0,1-0.7,1.2-1.4,1.2c0,0-0.1,0-0.2,0
									c0,0.1,0,0.4,0,0.5C-9,0,0,0,0,0"/>
							</g>
						</g>
					</g>
				</g>
			</g>
		</g>
	</g>
</g>
<g>
	<path class="st1" d="M159.9,148.5h-1.1c-0.1-2.3,0-3.8-3.4-3.8H149v23.5c0,2.9,1.6,3,3.8,3v1.1c-2,0-3.8-0.1-5.7-0.1
		c-2,0-4,0-6.1,0.1v-1.1c2.2,0,3.8-0.1,3.8-3v-23.5h-5.5c-3.8,0-3.9,1-4.7,3.8h-1.1l0.5-6.7h0.8c0.5,1.1,1.6,1.2,2.6,1.2h19.1
		c1.5,0,2.6-0.4,2.7-1.2h0.9L159.9,148.5z"/>
	<path class="st1" d="M164.8,146.4c0-2.7-0.6-2.8-2.2-3.3v-0.7c1.7-0.5,3.4-1.3,4.3-1.8c0.5-0.3,0.8-0.5,0.9-0.5
		c0.3,0,0.3,0.3,0.3,0.6v16c0.4-0.3,3.1-3.7,6.5-3.7c3.7,0,5.6,2.7,5.6,6.3v10.4c0,1.4,0.9,1.4,2.1,1.4h0.8v1.1
		c-1.5,0-2.9-0.1-4.5-0.1c-1.5,0-3,0-4.5,0.1v-1.1h0.8c2,0,2.1-0.5,2.1-4.6v-4.7c0-3.1-0.3-6.3-4.1-6.3c-2,0-3.7,1.5-4.6,2.4v11.8
		c0,1.4,0.9,1.4,2.1,1.4h0.8v1.1c-1.5,0-2.9-0.1-4.4-0.1c-1.5,0-3,0-4.5,0.1v-1.1h0.8c1.2,0,2,0,2-1.4V146.4z"/>
	<path class="st1" d="M189.1,160.7c-0.1,0.4-0.1,1,0,2.4c0.3,4,2.8,7.3,6.2,7.3c2.3,0,4.1-1.3,5.7-2.8l0.6,0.6
		c-1.9,2.6-4.3,4.7-7.8,4.7c-6.7,0-8-6.5-8-9.1c0-8.2,5.5-10.7,8.5-10.7c3.4,0,7,2.1,7.1,6.6c0,0.3,0,0.5,0,0.8l-0.4,0.3H189.1z
		 M196.5,159.3c1,0,1.2-0.5,1.2-1c0-2.1-1.3-3.9-3.7-3.9c-2.6,0-4.3,1.9-4.8,4.9H196.5z"/>
	<path class="st1" d="M215.8,143c1.9,0.1,3.8,0.1,5.7,0.1c1.4,0,2.9-0.1,4.7-0.1c4.3,0,10.5,1.8,10.5,8.4c0,5-4.6,8.4-9,8.4
		c-0.8,0-1.5,0-2.1,0v-1.4c0.5,0.1,1,0.1,1.6,0.1c3.6,0,5.2-3.6,5.2-6.6c0-5.8-4.1-7.5-6.8-7.5c-0.6,0-1.4,0-1.8,0.1v23.7
		c0,2.9,1.6,3,3.9,3v1.1c-2.1,0-3.9-0.1-5.7-0.1c-2,0-4,0-6.1,0.1v-1.1c2.2,0,3.8-0.1,3.8-3v-20c0-3.2-0.5-4.1-3.7-4.1V143z"/>
	<path class="st1" d="M240.4,166.4c0.5,2.8,2.2,5.1,5.3,5.1c2.5,0,3.4-1.5,3.4-3c0-5-9.1-3.4-9.1-10.1c0-2.3,1.9-5.4,6.5-5.4
		c1.3,0,3.1,0.4,4.8,1.2l0.3,4.3h-1c-0.4-2.6-1.9-4.2-4.6-4.2c-1.7,0-3.3,1-3.3,2.8c0,4.9,9.7,3.4,9.7,10c0,2.8-2.2,5.7-7.2,5.7
		c-1.7,0-3.7-0.6-5.1-1.4l-0.5-4.8L240.4,166.4z"/>
	<path class="st1" d="M254.9,153.7c1.6,0,3.2,0.1,4.9,0.1c1.3,0,2.5-0.1,3.8-0.1v1.1c-0.8,0.1-2.3,0-2.3,1.1c0,1.2,3.8,9.6,4.2,11.3
		h0.1c0.9-2.4,4.2-9.5,4.2-10.7c0-1.8-1.3-1.8-2.4-1.8v-1.1c1.3,0,2.6,0.1,3.9,0.1c1,0,2.1,0,3.1-0.1v1.1c-2,0-2.6,1.1-3.3,2.7
		l-9.5,22.2c-0.6,1.5-1.5,2.1-2.7,2.1c-1.3,0-2.1-0.9-2.1-2c0-1,0.9-2.1,2-2.1c0.7,0,1.1,0.1,1.7,0.6c2.1-4.4,2.9-6.8,2.9-6.8
		c0,0-5.5-14.3-6-15.2c-0.6-1-1.3-1.7-2.6-1.6V153.7z"/>
	<path class="st1" d="M292.8,168.5c-2.1,2.4-4.9,4.4-8.2,4.4c-4.4,0-8.4-4.2-8.4-8.7c0-6.1,4.4-11.1,10.4-11.1
		c2.1,0,5.7,0.7,5.7,2.9c0,1-0.6,1.8-1.6,1.8c-1.8,0-1.7-3.4-5.6-3.4c-3.6,0-5.5,4-5.5,7.2c0,4.3,2.8,8.1,7.3,8.1
		c2.1,0,3.5-0.8,5.1-2L292.8,168.5z"/>
	<path class="st1" d="M297.7,146.4c0-2.7-0.6-2.8-2.2-3.3v-0.7c1.7-0.5,3.4-1.3,4.3-1.8c0.5-0.3,0.8-0.5,0.9-0.5
		c0.3,0,0.3,0.3,0.3,0.6v16c0.4-0.3,3.1-3.7,6.5-3.7c3.7,0,5.6,2.7,5.6,6.3v10.4c0,1.4,0.9,1.4,2.1,1.4h0.8v1.1
		c-1.5,0-2.9-0.1-4.5-0.1c-1.5,0-3,0-4.5,0.1v-1.1h0.8c2,0,2.1-0.5,2.1-4.6v-4.7c0-3.1-0.3-6.3-4.1-6.3c-2,0-3.7,1.5-4.6,2.4v11.8
		c0,1.4,0.9,1.4,2.1,1.4h0.8v1.1c-1.5,0-2.9-0.1-4.4-0.1c-1.5,0-3,0-4.5,0.1v-1.1h0.8c1.2,0,2,0,2-1.4V146.4z"/>
	<path class="st1" d="M328.5,153.1c5.8,0,10.2,3.9,10.2,9.8c0,5.4-4.3,10-9.7,10c-5.6,0-10.2-3.9-10.2-9.8
		C318.9,157.7,322.9,153.1,328.5,153.1z M329,171.8c4.2,0,5.8-4.9,5.8-8.5c0-3.4-1.8-9.1-6.3-9.1c-4.2,0-5.8,4.9-5.8,8.5
		C322.8,166.1,324.6,171.8,329,171.8z"/>
	<path class="st1" d="M344.4,158.4c0-1.8-0.6-2.1-2.2-2.9v-0.7c2-0.6,4.3-1.4,4.5-1.5c0.3-0.2,0.5-0.2,0.8-0.2s0.3,0.3,0.3,0.6v2.6
		c2.3-1.6,4.2-3.1,7.3-3.1c2.2,0,3.9,1,4.4,3.2c2.3-1.5,4.2-3.2,7.2-3.2c3.7,0,5,2.9,5,5.9v10.8c0,1.4,0.9,1.4,2.1,1.4h0.6v1.1
		c-1.3,0-2.8-0.1-4.3-0.1s-3,0-4.5,0.1v-1.1h0.8c1.2,0,2,0,2-1.4v-9.3c0-2.6-0.5-5.2-3.7-5.2c-1.6,0-4,1.3-5,2v12.4
		c0,1.4,1,1.4,2.1,1.4h0.8v1.1c-1.5,0-3-0.1-4.5-0.1s-3,0-4.5,0.1v-1.1h0.8c1.2,0,2,0,2-1.4v-9.3c0-2.6-0.5-5.2-3.7-5.2
		c-1.6,0-4,1.3-5,2v12.4c0,1.4,0.9,1.4,2.1,1.4h0.8v1.1c-1.5,0-2.9-0.1-4.4-0.1s-3,0-4.7,0.1v-1.1h0.9c1.2,0,2,0,2-1.4V158.4z"/>
	<path class="st1" d="M380.2,160.7c-0.1,0.4-0.1,1,0,2.4c0.3,4,2.8,7.3,6.2,7.3c2.3,0,4.1-1.3,5.7-2.8l0.6,0.6
		c-1.9,2.6-4.3,4.7-7.8,4.7c-6.7,0-8-6.5-8-9.1c0-8.2,5.5-10.7,8.5-10.7c3.4,0,7,2.1,7.1,6.6c0,0.3,0,0.5,0,0.8l-0.4,0.3H380.2z
		 M387.6,159.3c1,0,1.2-0.5,1.2-1c0-2.1-1.3-3.9-3.7-3.9c-2.6,0-4.3,1.9-4.8,4.9H387.6z"/>
	<path class="st1" d="M401,167.1c0,2.8,1.5,3.5,2.6,3.5s2-0.4,2.9-1.2l0.6,0.6c-1.5,1.5-3.3,2.9-5.6,2.9c-2.7,0-4-1.4-4-3.9v-13
		h-2.8v-0.7c2.2-1.7,3.5-2.5,5.6-5.9h0.5v4.3h6.3v2.3H401V167.1z"/>
	<path class="st1" d="M409,171.2h1.1c1.2,0,2,0,2-1.4V158c0-1.3-1.6-1.6-2.2-1.9v-0.6c3.1-1.3,4.7-2.4,5.1-2.4
		c0.3,0,0.4,0.1,0.4,0.5v3.8h0.1c1-1.6,2.8-4.3,5.4-4.3c1,0,2.4,0.7,2.4,2.2c0,1.1-0.8,2.1-2,2.1c-1.3,0-1.3-1-2.8-1
		c-0.7,0-3.1,1-3.1,3.5v9.9c0,1.4,0.8,1.4,2,1.4h2.3v1.1c-2.3,0-4.1-0.1-5.9-0.1c-1.7,0-3.5,0-5,0.1V171.2z"/>
	<path class="st1" d="M425.7,171.2h0.8c1.2,0,2,0,2-1.4v-11.4c0-1.8-0.6-2.1-2.2-2.9v-0.7c2-0.6,4.3-1.4,4.5-1.5
		c0.3-0.2,0.5-0.2,0.8-0.2c0.2,0,0.3,0.3,0.3,0.6v16.1c0,1.4,0.9,1.4,2.1,1.4h0.7v1.1c-1.4,0-2.9-0.1-4.4-0.1c-1.5,0-3,0-4.6,0.1
		V171.2z M430.2,146.6c-1.1,0-2.1-1-2.1-2.1c0-1,1-2,2.1-2c1.1,0,2.1,0.9,2.1,2S431.3,146.6,430.2,146.6z"/>
	<path class="st1" d="M453.6,168.5c-2.1,2.4-4.9,4.4-8.2,4.4c-4.4,0-8.4-4.2-8.4-8.7c0-6.1,4.4-11.1,10.4-11.1
		c2.1,0,5.7,0.7,5.7,2.9c0,1-0.6,1.8-1.6,1.8c-1.8,0-1.7-3.4-5.6-3.4c-3.6,0-5.5,4-5.5,7.2c0,4.3,2.8,8.1,7.3,8.1
		c2.1,0,3.5-0.8,5.1-2L453.6,168.5z"/>
	<path class="st1" d="M457.1,166.4c0.5,2.8,2.2,5.1,5.3,5.1c2.5,0,3.4-1.5,3.4-3c0-5-9.1-3.4-9.1-10.1c0-2.3,1.9-5.4,6.5-5.4
		c1.3,0,3.1,0.4,4.8,1.2l0.3,4.3h-1c-0.4-2.6-1.9-4.2-4.6-4.2c-1.7,0-3.3,1-3.3,2.8c0,4.9,9.7,3.4,9.7,10c0,2.8-2.2,5.7-7.2,5.7
		c-1.7,0-3.7-0.6-5.1-1.4l-0.5-4.8L457.1,166.4z"/>
	<path class="st1" d="M511.3,150.6h-1c-0.8-4.9-4.3-6.9-9-6.9c-4.8,0-11.8,3.2-11.8,13.3c0,8.5,6,14.6,12.5,14.6
		c4.2,0,7.6-2.9,8.4-7.3l1,0.3l-1,6.1c-1.8,1.1-6.5,2.2-9.3,2.2c-9.8,0-16-6.3-16-15.8c0-8.6,7.7-14.8,15.9-14.8
		c3.4,0,6.7,1.1,9.9,2.2L511.3,150.6z"/>
	<path class="st1" d="M517.7,160.7c-0.1,0.4-0.1,1,0,2.4c0.3,4,2.8,7.3,6.2,7.3c2.3,0,4.1-1.3,5.7-2.8l0.6,0.6
		c-1.9,2.6-4.3,4.7-7.8,4.7c-6.7,0-8-6.5-8-9.1c0-8.2,5.5-10.7,8.5-10.7c3.4,0,7,2.1,7.1,6.6c0,0.3,0,0.5,0,0.8l-0.4,0.3H517.7z
		 M525.1,159.3c1,0,1.2-0.5,1.2-1c0-2.1-1.3-3.9-3.7-3.9c-2.6,0-4.3,1.9-4.8,4.9H525.1z"/>
	<path class="st1" d="M535.4,158.7c0-1.6-0.5-2-2.4-2.8v-0.8c1.8-0.6,3.5-1.1,5.5-2c0.1,0,0.3,0.1,0.3,0.4v2.7
		c2.4-1.7,4.4-3.1,7.3-3.1c3.6,0,4.8,2.6,4.8,5.9v10.8c0,1.4,0.9,1.4,2.1,1.4h0.8v1.1c-1.5,0-2.9-0.1-4.4-0.1s-3,0-4.5,0.1v-1.1h0.8
		c1.2,0,2,0,2-1.4v-10.9c0-2.4-1.5-3.6-3.9-3.6c-1.3,0-3.5,1.1-4.9,2v12.4c0,1.4,0.9,1.4,2.1,1.4h0.8v1.1c-1.5,0-2.9-0.1-4.4-0.1
		s-3,0-4.5,0.1v-1.1h0.8c1.2,0,2,0,2-1.4V158.7z"/>
	<path class="st1" d="M561.8,167.1c0,2.8,1.5,3.5,2.6,3.5s2-0.4,2.9-1.2l0.6,0.6c-1.5,1.5-3.3,2.9-5.6,2.9c-2.7,0-4-1.4-4-3.9v-13
		h-2.8v-0.7c2.2-1.7,3.5-2.5,5.6-5.9h0.5v4.3h6.3v2.3h-6.3V167.1z"/>
	<path class="st1" d="M569.8,171.2h1.1c1.2,0,2,0,2-1.4V158c0-1.3-1.6-1.6-2.2-1.9v-0.6c3.1-1.3,4.7-2.4,5.1-2.4
		c0.3,0,0.4,0.1,0.4,0.5v3.8h0.1c1-1.6,2.8-4.3,5.4-4.3c1,0,2.4,0.7,2.4,2.2c0,1.1-0.8,2.1-2,2.1c-1.3,0-1.3-1-2.8-1
		c-0.7,0-3.1,1-3.1,3.5v9.9c0,1.4,0.8,1.4,2,1.4h2.3v1.1c-2.3,0-4.1-0.1-5.9-0.1c-1.7,0-3.5,0-5,0.1V171.2z"/>
	<path class="st1" d="M589.9,160.7c-0.1,0.4-0.1,1,0,2.4c0.3,4,2.8,7.3,6.2,7.3c2.3,0,4.1-1.3,5.7-2.8l0.6,0.6
		c-1.9,2.6-4.3,4.7-7.8,4.7c-6.7,0-8-6.5-8-9.1c0-8.2,5.5-10.7,8.5-10.7c3.4,0,7,2.1,7.1,6.6c0,0.3,0,0.5,0,0.8l-0.4,0.3H589.9z
		 M597.4,159.3c1,0,1.2-0.5,1.2-1c0-2.1-1.3-3.9-3.7-3.9c-2.6,0-4.3,1.9-4.8,4.9H597.4z"/>
</g>
</svg>
